<svg width="393" height="298" viewBox="0 0 393 298" fill="none" xmlns="http://www.w3.org/2000/svg">
<g filter="url(#filter0_d_2471_2377)">
<mask id="path-1-inside-1_2471_2377" fill="white">
<path fill-rule="evenodd" clip-rule="evenodd" d="M118.647 20L19 20L19 278H119.989L123.114 269.842H269.886L273.011 278H374V20L272.353 20L268.886 29.052L122.114 29.052L118.647 20Z"/>
</mask>
<path fill-rule="evenodd" clip-rule="evenodd" d="M118.647 20L19 20L19 278H119.989L123.114 269.842H269.886L273.011 278H374V20L272.353 20L268.886 29.052L122.114 29.052L118.647 20Z" fill="#363636" fill-opacity="0.24"/>
<path d="M118.647 20L119.581 19.6423L119.335 19H118.647V20ZM19 20V19H18V20H19ZM19 278H18V279H19V278ZM119.989 278V279H120.677L120.923 278.358L119.989 278ZM123.114 269.842V268.842H122.426L122.18 269.484L123.114 269.842ZM269.886 269.842L270.82 269.484L270.574 268.842H269.886V269.842ZM273.011 278L272.077 278.358L272.323 279H273.011V278ZM374 278V279H375V278H374ZM374 20H375V19H374V20ZM272.353 20V19H271.665L271.419 19.6423L272.353 20ZM268.886 29.052V30.052H269.574L269.82 29.4097L268.886 29.052ZM122.114 29.052L121.18 29.4097L121.426 30.052H122.114V29.052ZM118.647 19L19 19V21L118.647 21V19ZM18 20L18 278H20L20 20H18ZM19 279H119.989V277H19V279ZM120.923 278.358L124.048 270.2L122.18 269.484L119.055 277.642L120.923 278.358ZM123.114 270.842H269.886V268.842H123.114V270.842ZM268.952 270.2L272.077 278.358L273.945 277.642L270.82 269.484L268.952 270.2ZM273.011 279H374V277H273.011V279ZM375 278V20H373V278H375ZM374 19L272.353 19V21L374 21V19ZM271.419 19.6423L267.952 28.6943L269.82 29.4097L273.287 20.3577L271.419 19.6423ZM268.886 28.052L122.114 28.052V30.052L268.886 30.052V28.052ZM123.048 28.6943L119.581 19.6423L117.713 20.3577L121.18 29.4097L123.048 28.6943Z" fill="#21D1FF" mask="url(#path-1-inside-1_2471_2377)"/>
<g filter="url(#filter1_d_2471_2377)">
<path d="M66.9805 81.124L63.5365 83H51.5245L53.5685 63.4H65.5805L68.6325 65.276L66.9805 81.124ZM57.1245 66.76L55.7805 79.64H63.2005L64.5445 66.76H57.1245ZM76.3282 74.6L75.7962 79.64H83.6082L83.2722 83H71.5402L73.5842 63.4H85.3162L84.9522 66.76H77.1402L76.6922 71.24H82.8242L82.4602 74.6H76.3282ZM105.303 63.4L96.2593 83H91.9473L86.9913 63.4H90.9673L94.5793 78.212H94.6353L101.327 63.4H105.303ZM110.836 74.6L110.304 79.64H118.116L117.78 83H106.048L108.092 63.4H119.824L119.46 66.76H111.648L111.2 71.24H117.332L116.968 74.6H110.836ZM121.415 83L123.459 63.4H127.379L125.671 79.64H132.363L132.027 83H121.415ZM150.542 81.264L147.098 83.14H138.334L135.282 81.264L136.99 65.136L140.434 63.26H149.198L152.25 65.136L150.542 81.264ZM140.742 66.62L139.37 79.78H146.79L148.162 66.62H140.742ZM155.13 83L157.174 63.4H167.506L170.558 65.276L169.634 74.012L166.19 75.888H159.778L159.05 83H155.13ZM160.73 66.76L160.142 72.528H165.882L166.47 66.76H160.73ZM189.122 83L190.466 70.064H190.41L184.642 83H180.918L177.838 69.896H177.782L176.41 83H172.63L174.674 63.4H179.882L183.298 77.82H183.354L189.766 63.4H194.946L192.902 83H189.122ZM202.438 74.6L201.906 79.64H209.718L209.382 83H197.65L199.694 63.4H211.426L211.062 66.76H203.25L202.802 71.24H208.934L208.57 74.6H202.438ZM218.253 70.316L216.937 83H213.017L215.061 63.4H218.729L225.841 76.084H225.897L227.241 63.4H231.161L229.117 83H225.449L218.309 70.316H218.253ZM243.092 66.76L241.412 83H237.492L239.172 66.76H233.88L234.244 63.4H248.748L248.384 66.76H243.092ZM266.28 66.76L264.6 83H260.68L262.36 66.76H257.068L257.432 63.4H271.936L271.572 66.76H266.28ZM277.77 74.6L277.238 79.64H285.05L284.714 83H272.982L275.026 63.4H286.758L286.394 66.76H278.582L278.134 71.24H284.266L283.902 74.6H277.77ZM299.465 63.4L304.421 83H300.557L299.493 78.772H292.157L290.253 83H286.389L295.433 63.4H299.465ZM296.917 68.328L293.697 75.412H298.653L296.973 68.328H296.917ZM323.708 83L325.052 70.064H324.996L319.228 83H315.504L312.424 69.896H312.368L310.996 83H307.216L309.26 63.4H314.468L317.884 77.82H317.94L324.352 63.4H329.532L327.488 83H323.708Z" fill="#21D1FF"/>
</g>
<path d="M108.001 130.995L106.261 132H100.126V121.5H106.261L108.001 122.505V130.995ZM101.626 122.85V130.65H106.501V122.85H101.626ZM116.478 130.695V132H112.293L110.553 130.995V125.43L112.293 124.425H114.738L116.478 125.43V128.76H112.008V130.695H116.478ZM112.008 125.73V127.455H115.023V125.73H112.008ZM119.398 124.5L121.603 130.62H121.633L123.853 124.5H125.278L122.503 132H120.748L117.973 124.5H119.398ZM134.808 131.07L133.068 132.075H128.673L126.933 131.07V122.43L128.673 121.425H133.068L134.808 122.43V131.07ZM128.433 122.775V130.725H133.308V122.775H128.433ZM142.144 132.075H139.879L138.814 131.46V135H137.359V124.425H138.454L138.814 125.04L139.879 124.425H142.144L143.884 125.43V131.07L142.144 132.075ZM138.814 125.73V130.77H142.429V125.73H138.814ZM152.205 130.695V132H148.02L146.28 130.995V125.43L148.02 124.425H150.465L152.205 125.43V128.76H147.735V130.695H152.205ZM147.735 125.73V127.455H150.75V125.73H147.735ZM158.785 125.805H156.055V132H154.6V124.5H155.695L156.055 125.115L157.12 124.5H158.785V125.805ZM161.585 128.925V130.77H164.6V128.925H161.585ZM161.87 132.075L160.13 131.07V128.625L161.87 127.62H164.6V125.805H160.88V124.5H164.315L166.055 125.505V132.075H165.665L164.6 131.46L163.535 132.075H161.87ZM167.858 125.805V124.5H169.238V123.24L170.693 122.4V124.5H172.493V125.805H170.693V130.695H172.493V132H170.978L169.238 130.995V125.805H167.858ZM180.971 131.07L179.231 132.075H176.336L174.596 131.07V125.43L176.336 124.425H179.231L180.971 125.43V131.07ZM176.051 125.73V130.77H179.516V125.73H176.051ZM187.555 125.805H184.825V132H183.37V124.5H184.465L184.825 125.115L185.89 124.5H187.555V125.805ZM125.623 165.995L123.883 167H117.748V156.5H123.883L125.623 157.505V165.995ZM119.248 157.85V165.65H124.123V157.85H119.248ZM129.825 162.275V165.65H134.31V167H128.325V156.5H134.31V157.85H129.825V160.925H133.41V162.275H129.825ZM136.411 161.45V157.43L138.151 156.425H141.646L143.386 157.43V158.975H141.886V157.775H137.911V160.955H141.646L143.386 161.96V166.07L141.646 167.075H138.001L136.261 166.07V164.525H137.761V165.725H141.886V162.455H138.151L136.411 161.45ZM146.079 167V156.5H147.579V167H146.079ZM154.483 163.1V161.75H157.708V166.07L155.968 167.075H152.023L150.283 166.07V157.43L152.023 156.425H155.968L157.708 157.43V159.125H156.208V157.775H151.783V165.725H156.208V163.1H154.483ZM161.905 159.065V167H160.405V156.5H161.77L167.2 164.435H167.23V156.5H168.73V167H167.365L161.935 159.065H161.905ZM172.935 162.275V165.65H177.42V167H171.435V156.5H177.42V157.85H172.935V160.925H176.52V162.275H172.935ZM183.286 162.815H181.021V167H179.521V156.5H184.906L186.646 157.505V161.81L184.906 162.815L187.321 167H185.656L183.286 162.815ZM181.021 157.85V161.465H185.146V157.85H181.021ZM67.8998 202V191.5H69.3998V200.65H73.2848V202H67.8998ZM76.5775 197.275V200.65H81.0625V202H75.0775V191.5H81.0625V192.85H76.5775V195.925H80.1625V197.275H76.5775ZM87.7235 191.5L91.4735 202H90.0035L89.1185 199.51H84.4685L83.5835 202H82.1135L85.8635 191.5H87.7235ZM86.7785 192.985L84.9485 198.16H88.6385L86.8085 192.985H86.7785ZM100.999 200.995L99.2594 202H93.1244V191.5H99.2594L100.999 192.505V200.995ZM94.6244 192.85V200.65H99.4994V192.85H94.6244ZM115.472 200.995L113.732 202H107.597V191.5H113.732L115.472 192.505V200.995ZM109.097 192.85V200.65H113.972V192.85H109.097ZM119.673 197.275V200.65H124.158V202H118.173V191.5H124.158V192.85H119.673V195.925H123.258V197.275H119.673ZM134.569 191.5L130.819 202H128.959L125.209 191.5H126.724L129.874 200.455H129.904L133.054 191.5H134.569ZM137.72 197.275V200.65H142.205V202H136.22V191.5H142.205V192.85H137.72V195.925H141.305V197.275H137.72ZM144.306 202V191.5H145.806V200.65H149.691V202H144.306ZM159.359 201.07L157.619 202.075H153.224L151.484 201.07V192.43L153.224 191.425H157.619L159.359 192.43V201.07ZM152.984 192.775V200.725H157.859V192.775H152.984ZM162.06 202V191.5H167.295L169.035 192.505V196.96L167.295 197.965H163.56V202H162.06ZM163.56 192.85V196.615H167.535V192.85H163.56ZM172.935 197.275V200.65H177.42V202H171.435V191.5H177.42V192.85H172.935V195.925H176.52V197.275H172.935ZM183.286 197.815H181.021V202H179.521V191.5H184.906L186.646 192.505V196.81L184.906 197.815L187.321 202H185.656L183.286 197.815ZM181.021 192.85V196.465H185.146V192.85H181.021ZM83.9847 226.5L81.2847 237H79.4997L77.2797 228.585H77.2497L75.0297 237H73.2447L70.5447 226.5H71.9997L74.1297 235.08H74.1597L76.4247 226.5H78.1047L80.3547 235.08H80.3847L82.5297 226.5H83.9847ZM87.2855 232.275V235.65H91.7705V237H85.7855V226.5H91.7705V227.85H87.2855V230.925H90.8705V232.275H87.2855ZM100.996 230.805L99.6915 231.555V231.585L100.996 232.335V235.995L99.2565 237H93.8715V226.5H99.2565L100.996 227.505V230.805ZM95.3715 232.245V235.65H99.4965V232.245H95.3715ZM95.3715 227.85V230.895H99.4965V227.85H95.3715ZM115.472 235.995L113.732 237H107.597V226.5H113.732L115.472 227.505V235.995ZM109.097 227.85V235.65H113.972V227.85H109.097ZM119.673 232.275V235.65H124.158V237H118.173V226.5H124.158V227.85H119.673V230.925H123.258V232.275H119.673ZM134.569 226.5L130.819 237H128.959L125.209 226.5H126.724L129.874 235.455H129.904L133.054 226.5H134.569ZM137.72 232.275V235.65H142.205V237H136.22V226.5H142.205V227.85H137.72V230.925H141.305V232.275H137.72ZM144.306 237V226.5H145.806V235.65H149.691V237H144.306ZM159.359 236.07L157.619 237.075H153.224L151.484 236.07V227.43L153.224 226.425H157.619L159.359 227.43V236.07ZM152.984 227.775V235.725H157.859V227.775H152.984ZM162.06 237V226.5H167.295L169.035 227.505V231.96L167.295 232.965H163.56V237H162.06ZM163.56 227.85V231.615H167.535V227.85H163.56ZM172.935 232.275V235.65H177.42V237H171.435V226.5H177.42V227.85H172.935V230.925H176.52V232.275H172.935ZM183.286 232.815H181.021V237H179.521V226.5H184.906L186.646 227.505V231.81L184.906 232.815L187.321 237H185.656L183.286 232.815ZM181.021 227.85V231.465H185.146V227.85H181.021Z" fill="#21D1FF"/>
<path d="M220.375 127.5V132H218.275V121.5H220.375V125.7H224.5V121.5H226.6V132H224.5V127.5H220.375ZM229.144 132V121.5H231.244V132H229.144ZM242.623 132V125.07H242.593L240.223 132H238.228L235.843 124.98H235.813V132H233.788V121.5H236.578L239.218 129.225H239.248L241.873 121.5H244.648V132H242.623ZM252.051 121.5L255.801 132H253.731L252.936 129.735H249.006L248.211 132H246.141L249.891 121.5H252.051ZM250.956 124.14L249.636 127.935H252.291L250.986 124.14H250.956ZM257.298 126.675V122.43L259.038 121.425H262.833L264.573 122.43V124.425H262.473V123.225H259.398V125.73H262.833L264.573 126.735V131.07L262.833 132.075H258.888L257.148 131.07V129.075H259.248V130.275H262.473V127.68H259.038L257.298 126.675ZM269.228 127.5V132H267.128V121.5H269.228V125.7H273.353V121.5H275.453V132H273.353V127.5H269.228ZM284.072 121.5H286.172V131.07L284.432 132.075H279.737L277.997 131.07V121.5H280.097V130.125H284.072V121.5ZM223.135 156.5L226.885 167H224.815L224.02 164.735H220.09L219.295 167H217.225L220.975 156.5H223.135ZM222.04 159.14L220.72 162.935H223.375L222.07 159.14H222.04ZM234.457 156.5H236.557V166.07L234.817 167.075H230.122L228.382 166.07V156.5H230.482V165.125H234.457V156.5ZM247.28 165.995L245.54 167H239.105V156.5H245.54L247.28 157.505V165.995ZM241.205 158.3V165.2H245.18V158.3H241.205ZM257.793 167H255.483L253.233 163.04H251.928V167H249.828V156.5H255.513L257.253 157.505V162.035L255.513 163.04L257.793 167ZM251.928 158.3V161.24H255.153V158.3H251.928ZM261.903 162.5V165.2H266.088V167H259.803V156.5H266.088V158.3H261.903V160.7H265.188V162.5H261.903ZM270.361 167V162.515L266.986 156.5H269.266L271.396 160.43H271.426L273.571 156.5H275.851L272.461 162.53V167H270.361ZM286.874 163.925H288.974V166.07L287.234 167.075H282.989L281.249 166.07V157.43L282.989 156.425H287.234L288.974 157.43V159.575H286.874V158.225H283.349V165.275H286.874V163.925ZM293.471 162.5V167H291.371V156.5H293.471V160.7H297.596V156.5H299.696V167H297.596V162.5H293.471ZM308.315 156.5H310.415V166.07L308.675 167.075H303.98L302.24 166.07V156.5H304.34V165.125H308.315V156.5ZM315.063 160.205V167H312.963V156.5H314.928L319.458 163.295H319.488V156.5H321.588V167H319.623L315.093 160.205H315.063ZM327.889 163.325V161.525H331.714V166.07L329.974 167.075H325.729L323.989 166.07V157.43L325.729 156.425H329.974L331.714 157.43V159.575H329.614V158.225H326.089V165.275H329.614V163.325H327.889ZM222.31 193.3V202H220.21V193.3H217.375V191.5H225.145V193.3H222.31ZM230.913 191.5L234.663 202H232.593L231.798 199.735H227.868L227.073 202H225.003L228.753 191.5H230.913ZM229.818 194.14L228.498 197.935H231.153L229.848 194.14H229.818ZM236.161 196.675V192.43L237.901 191.425H241.696L243.436 192.43V194.425H241.336V193.225H238.261V195.73H241.696L243.436 196.735V201.07L241.696 202.075H237.751L236.011 201.07V199.075H238.111V200.275H241.336V197.68H237.901L236.161 196.675ZM248.09 197.5V202H245.99V191.5H248.09V195.7H252.215V191.5H254.315V202H252.215V197.5H248.09ZM264.824 202H262.514L260.264 198.04H258.959V202H256.859V191.5H262.544L264.284 192.505V197.035L262.544 198.04L264.824 202ZM258.959 193.3V196.24H262.184V193.3H258.959ZM266.835 202V191.5H268.935V202H266.835ZM273.578 197.5V202H271.478V191.5H277.913V193.3H273.578V195.7H277.013V197.5H273.578ZM291.426 202H289.116L286.866 198.04H285.561V202H283.461V191.5H289.146L290.886 192.505V197.035L289.146 198.04L291.426 202ZM285.561 193.3V196.24H288.786V193.3H285.561ZM298.296 191.5L302.046 202H299.976L299.181 199.735H295.251L294.456 202H292.386L296.136 191.5H298.296ZM297.201 194.14L295.881 197.935H298.536L297.231 194.14H297.201ZM311.719 200.995L309.979 202H303.544V191.5H309.979L311.719 192.505V200.995ZM305.644 193.3V200.2H309.619V193.3H305.644ZM314.266 202V191.5H316.366V202H314.266ZM321.01 195.205V202H318.91V191.5H320.875L325.405 198.295H325.435V191.5H327.535V202H325.57L321.04 195.205H321.01ZM227.11 237V230.07H227.08L224.71 237H222.715L220.33 229.98H220.3V237H218.275V226.5H221.065L223.705 234.225H223.735L226.36 226.5H229.135V237H227.11ZM239.853 236.07L238.113 237.075H233.418L231.678 236.07V227.43L233.418 226.425H238.113L239.853 227.43V236.07ZM233.778 228.225V235.275H237.753V228.225H233.778ZM244.501 232.5V237H242.401V226.5H244.501V230.7H248.626V226.5H250.726V237H248.626V232.5H244.501ZM253.27 237V226.5H255.37V237H253.27ZM261.949 228.3V237H259.849V228.3H257.014V226.5H264.784V228.3H261.949Z" fill="#21D1FF"/>
</g>
<defs>
<filter id="filter0_d_2471_2377" x="-1" y="0" width="395" height="298" filterUnits="userSpaceOnUse" color-interpolation-filters="sRGB">
<feFlood flood-opacity="0" result="BackgroundImageFix"/>
<feColorMatrix in="SourceAlpha" type="matrix" values="0 0 0 0 0 0 0 0 0 0 0 0 0 0 0 0 0 0 127 0" result="hardAlpha"/>
<feOffset/>
<feGaussianBlur stdDeviation="10"/>
<feComposite in2="hardAlpha" operator="out"/>
<feColorMatrix type="matrix" values="0 0 0 0 0.129412 0 0 0 0 0.819608 0 0 0 0 1 0 0 0 1 0"/>
<feBlend mode="normal" in2="BackgroundImageFix" result="effect1_dropShadow_2471_2377"/>
<feBlend mode="normal" in="SourceGraphic" in2="effect1_dropShadow_2471_2377" result="shape"/>
</filter>
<filter id="filter1_d_2471_2377" x="47.5244" y="63.26" width="286.007" height="27.88" filterUnits="userSpaceOnUse" color-interpolation-filters="sRGB">
<feFlood flood-opacity="0" result="BackgroundImageFix"/>
<feColorMatrix in="SourceAlpha" type="matrix" values="0 0 0 0 0 0 0 0 0 0 0 0 0 0 0 0 0 0 127 0" result="hardAlpha"/>
<feOffset dy="4"/>
<feGaussianBlur stdDeviation="2"/>
<feComposite in2="hardAlpha" operator="out"/>
<feColorMatrix type="matrix" values="0 0 0 0 0 0 0 0 0 0 0 0 0 0 0 0 0 0 0.5 0"/>
<feBlend mode="normal" in2="BackgroundImageFix" result="effect1_dropShadow_2471_2377"/>
<feBlend mode="normal" in="SourceGraphic" in2="effect1_dropShadow_2471_2377" result="shape"/>
</filter>
</defs>
</svg>
