<svg width="393" height="579" viewBox="0 0 393 579" fill="none" xmlns="http://www.w3.org/2000/svg">
<g filter="url(#filter0_d_2471_2383)">
<mask id="path-1-inside-1_2471_2383" fill="white">
<path fill-rule="evenodd" clip-rule="evenodd" d="M19 20L118.647 20L122.114 29.2224L268.886 29.2224L272.353 20L374 20L374 559H266.838L260.641 551.209H131.359L125.162 559H19L19 20Z"/>
</mask>
<path fill-rule="evenodd" clip-rule="evenodd" d="M19 20L118.647 20L122.114 29.2224L268.886 29.2224L272.353 20L374 20L374 559H266.838L260.641 551.209H131.359L125.162 559H19L19 20Z" fill="#363636" fill-opacity="0.24"/>
<path d="M118.647 20L119.583 19.6481L119.339 19H118.647V20ZM19 20V19H18V20H19ZM122.114 29.2224L121.178 29.5743L121.421 30.2224H122.114V29.2224ZM268.886 29.2224V30.2224H269.579L269.822 29.5743L268.886 29.2224ZM272.353 20V19H271.661L271.417 19.6481L272.353 20ZM374 20H375V19H374V20ZM374 559V560H375V559H374ZM266.838 559L266.055 559.623L266.356 560H266.838V559ZM260.641 551.209L261.423 550.587L261.123 550.209H260.641V551.209ZM131.359 551.209V550.209H130.877L130.577 550.587L131.359 551.209ZM125.162 559V560H125.644L125.945 559.623L125.162 559ZM19 559H18V560H19V559ZM118.647 19L19 19V21L118.647 21V19ZM123.05 28.8705L119.583 19.6481L117.711 20.3519L121.178 29.5743L123.05 28.8705ZM268.886 28.2224L122.114 28.2224V30.2224L268.886 30.2224V28.2224ZM271.417 19.6481L267.95 28.8705L269.822 29.5743L273.289 20.3519L271.417 19.6481ZM374 19L272.353 19V21L374 21V19ZM375 559L375 20H373L373 559H375ZM266.838 560H374V558H266.838V560ZM267.62 558.377L261.423 550.587L259.858 551.832L266.055 559.623L267.62 558.377ZM260.641 550.209H131.359V552.209H260.641V550.209ZM130.577 550.587L124.38 558.377L125.945 559.623L132.142 551.832L130.577 550.587ZM19 560H125.162V558H19V560ZM18 20L18 559H20L20 20H18Z" fill="#21D1FF" mask="url(#path-1-inside-1_2471_2383)"/>
<g filter="url(#filter1_d_2471_2383)">
<path d="M136.329 368L137.049 361.07H137.019L133.929 368H131.934L130.284 360.98H130.254L129.519 368H127.494L128.589 357.5H131.379L133.209 365.225H133.239L136.674 357.5H139.449L138.354 368H136.329ZM148.067 357.5H150.167L149.162 367.07L147.317 368.075H142.622L140.987 367.07L141.992 357.5H144.092L143.192 366.125H147.167L148.067 357.5ZM152.175 362.675L152.625 358.43L154.47 357.425H158.265L159.9 358.43L159.69 360.425H157.59L157.71 359.225H154.635L154.365 361.73H157.8L159.435 362.735L158.985 367.07L157.14 368.075H153.195L151.56 367.07L151.77 365.075H153.87L153.75 366.275H156.975L157.245 363.68H153.81L152.175 362.675ZM161.449 368L162.544 357.5H164.644L163.549 368H161.449ZM172.032 364.925H174.132L173.907 367.07L172.062 368.075H167.817L166.182 367.07L167.097 358.43L168.942 357.425H173.187L174.822 358.43L174.597 360.575H172.497L172.632 359.225H169.107L168.372 366.275H171.897L172.032 364.925ZM189.096 361.67L188.901 363.47H187.791L187.416 367.07L185.571 368.075H181.836L180.201 367.07L180.591 363.335L181.971 362.585L181.986 362.555L180.756 361.805L181.116 358.43L182.961 357.425H186.096L187.731 358.43L187.506 360.575H185.406L185.541 359.225H183.126L182.871 361.67H185.046L184.851 363.47H182.676L182.391 366.275H185.406L185.781 362.675L187.626 361.67H189.096ZM194.538 362.675L194.988 358.43L196.833 357.425H200.628L202.263 358.43L202.053 360.425H199.953L200.073 359.225H196.998L196.728 361.73H200.163L201.798 362.735L201.348 367.07L199.503 368.075H195.558L193.923 367.07L194.133 365.075H196.233L196.113 366.275H199.338L199.608 363.68H196.173L194.538 362.675ZM212.077 367.07L210.232 368.075H205.537L203.902 367.07L204.817 358.43L206.662 357.425H211.357L212.992 358.43L212.077 367.07ZM206.827 359.225L206.092 366.275H210.067L210.802 359.225H206.827ZM221.705 357.5H223.805L222.8 367.07L220.955 368.075H216.26L214.625 367.07L215.63 357.5H217.73L216.83 366.125H220.805L221.705 357.5ZM228.062 361.205L227.357 368H225.257L226.352 357.5H228.317L232.127 364.295H232.157L232.877 357.5H234.977L233.882 368H231.917L228.092 361.205H228.062ZM244.714 366.995L242.869 368H236.434L237.529 357.5H243.964L245.599 358.505L244.714 366.995ZM239.434 359.3L238.714 366.2H242.689L243.409 359.3H239.434ZM253.618 363.5L253.153 368H251.053L252.148 357.5H258.583L258.388 359.3H254.053L253.813 361.7H257.248L257.053 363.5H253.618ZM258.239 368L262.184 362.63L259.484 357.5H261.854L263.564 360.755L265.979 357.5H268.349L264.554 362.63L267.404 368H265.034L263.174 364.505L260.609 368H258.239Z" fill="#21D1FF"/>
</g>
<path d="M64.0928 401.222V392.672H64.0628L60.9728 401.222H59.4728L56.3978 392.672H56.3678V401.222H54.9428V390.722H57.0578L60.2078 399.482H60.2378L63.4028 390.722H65.5178V401.222H64.0928ZM72.7743 390.722L76.5243 401.222H75.0543L74.1693 398.732H69.5193L68.6343 401.222H67.1643L70.9143 390.722H72.7743ZM71.8293 392.207L69.9993 397.382H73.6893L71.8593 392.207H71.8293ZM78.1752 401.222V390.722H79.6752V401.222H78.1752ZM83.8793 393.287V401.222H82.3793V390.722H83.7443L89.1743 398.657H89.2043V390.722H90.7043V401.222H89.3393L83.9093 393.287H83.8793ZM97.3061 401.222V390.722H102.541L104.281 391.727V396.182L102.541 397.187H98.8061V401.222H97.3061ZM98.8061 392.072V395.837H102.781V392.072H98.8061ZM110.446 397.037H108.181V401.222H106.681V390.722H112.066L113.806 391.727V396.032L112.066 397.037L114.481 401.222H112.816L110.446 397.037ZM108.181 392.072V395.687H112.306V392.072H108.181ZM124.385 400.292L122.645 401.297H118.25L116.51 400.292V391.652L118.25 390.647H122.645L124.385 391.652V400.292ZM118.01 391.997V399.947H122.885V391.997H118.01ZM127.086 401.222V390.722H128.586V399.872H132.471V401.222H127.086ZM142.139 400.292L140.399 401.297H136.004L134.264 400.292V391.652L136.004 390.647H140.399L142.139 391.652V400.292ZM135.764 391.997V399.947H140.639V391.997H135.764ZM149.04 397.322V395.972H152.265V400.292L150.525 401.297H146.58L144.84 400.292V391.652L146.58 390.647H150.525L152.265 391.652V393.347H150.765V391.997H146.34V399.947H150.765V397.322H149.04ZM161.337 390.722H162.837V400.292L161.097 401.297H156.702L154.962 400.292V390.722H156.462V399.797H161.337V390.722ZM167.038 396.497V399.872H171.523V401.222H165.538V390.722H171.523V392.072H167.038V395.147H170.623V396.497H167.038ZM185.546 395.117V396.467H184.436V400.292L182.696 401.297H179.261L177.521 400.292V396.557L178.826 395.807V395.777L177.521 395.027V391.652L179.261 390.647H182.096L183.836 391.652V393.347H182.336V391.997H179.021V395.117H181.646V396.467H179.021V399.947H182.936V396.122L184.676 395.117H185.546ZM69.0551 414.497V417.872H73.5401V419.222H67.5551V408.722H73.5401V410.072H69.0551V413.147H72.6401V414.497H69.0551ZM75.641 419.222V408.722H80.876L82.616 409.727V414.182L80.876 415.187H77.141V419.222H75.641ZM77.141 410.072V413.837H81.116V410.072H77.141ZM85.016 419.222V408.722H86.516V419.222H85.016ZM89.2201 419.222V408.722H90.7201V417.872H94.6051V419.222H89.2201ZM104.273 418.292L102.533 419.297H98.1379L96.3979 418.292V409.652L98.1379 408.647H102.533L104.273 409.652V418.292ZM97.8979 409.997V417.947H102.773V409.997H97.8979ZM111.174 415.322V413.972H114.399V418.292L112.659 419.297H108.714L106.974 418.292V409.652L108.714 408.647H112.659L114.399 409.652V411.347H112.899V409.997H108.474V417.947H112.899V415.322H111.174ZM123.471 408.722H124.971V418.292L123.231 419.297H118.836L117.096 418.292V408.722H118.596V417.797H123.471V408.722ZM129.172 414.497V417.872H133.657V419.222H127.672V408.722H133.657V410.072H129.172V413.147H132.757V414.497H129.172ZM148.805 419.222V410.672H148.775L145.685 419.222H144.185L141.11 410.672H141.08V419.222H139.655V408.722H141.77L144.92 417.482H144.95L148.115 408.722H150.23V419.222H148.805ZM159.301 408.722H160.801V418.292L159.061 419.297H154.666L152.926 418.292V408.722H154.426V417.797H159.301V408.722ZM163.502 413.672V409.652L165.242 408.647H168.737L170.477 409.652V411.197H168.977V409.997H165.002V413.177H168.737L170.477 414.182V418.292L168.737 419.297H165.092L163.352 418.292V416.747H164.852V417.947H168.977V414.677H165.242L163.502 413.672ZM173.17 419.222V408.722H174.67V419.222H173.17ZM183.299 416.597H184.799V418.292L183.059 419.297H179.114L177.374 418.292V409.652L179.114 408.647H183.059L184.799 409.652V411.347H183.299V409.997H178.874V417.947H183.299V416.597ZM128.84 428.072V437.222H127.34V428.072H124.355V426.722H131.825V428.072H128.84ZM135.12 432.497V437.222H133.62V426.722H135.12V431.147H140.145V426.722H141.645V437.222H140.145V432.497H135.12ZM145.842 432.497V435.872H150.327V437.222H144.342V426.722H150.327V428.072H145.842V431.147H149.427V432.497H145.842ZM161.578 437.222V428.672H161.548L158.458 437.222H156.958L153.883 428.672H153.853V437.222H152.428V426.722H154.543L157.693 435.482H157.723L160.888 426.722H163.003V437.222H161.578ZM167.2 432.497V435.872H171.685V437.222H165.7V426.722H171.685V428.072H167.2V431.147H170.785V432.497H167.2ZM173.786 431.672V427.652L175.526 426.647H179.021L180.761 427.652V429.197H179.261V427.997H175.286V431.177H179.021L180.761 432.182V436.292L179.021 437.297H175.376L173.636 436.292V434.747H175.136V435.947H179.261V432.677H175.526L173.786 431.672ZM76.207 467.222V458.672H76.177L73.087 467.222H71.587L68.512 458.672H68.482V467.222H67.057V456.722H69.172L72.322 465.482H72.352L75.517 456.722H77.632V467.222H76.207ZM84.8885 456.722L88.6385 467.222H87.1685L86.2835 464.732H81.6335L80.7485 467.222H79.2785L83.0285 456.722H84.8885ZM83.9435 458.207L82.1135 463.382H85.8035L83.9735 458.207H83.9435ZM90.2895 467.222V456.722H91.7895V467.222H90.2895ZM95.9936 459.287V467.222H94.4936V456.722H95.8586L101.289 464.657H101.319V456.722H102.819V467.222H101.454L96.0236 459.287H95.9936ZM109.42 461.672V457.652L111.16 456.647H114.655L116.395 457.652V459.197H114.895V457.997H110.92V461.177H114.655L116.395 462.182V466.292L114.655 467.297H111.01L109.27 466.292V464.747H110.77V465.947H114.895V462.677H111.16L109.42 461.672ZM126.963 466.292L125.223 467.297H120.828L119.088 466.292V457.652L120.828 456.647H125.223L126.963 457.652V466.292ZM120.588 457.997V465.947H125.463V457.997H120.588ZM136.039 456.722H137.539V466.292L135.799 467.297H131.404L129.664 466.292V456.722H131.164V465.797H136.039V456.722ZM141.741 459.287V467.222H140.241V456.722H141.606L147.036 464.657H147.066V456.722H148.566V467.222H147.201L141.771 459.287H141.741ZM159.146 466.217L157.406 467.222H151.271V456.722H157.406L159.146 457.727V466.217ZM152.771 458.072V465.872H157.646V458.072H152.771ZM167.244 462.497V467.222H165.744V456.722H171.879V458.072H167.244V461.147H170.979V462.497H167.244ZM172.783 467.222L176.383 461.867L172.933 456.722H174.613L177.208 460.622L179.818 456.722H181.498L178.033 461.867L181.648 467.222H179.968L177.208 463.097L174.463 467.222H172.783ZM46.8861 491.672V487.652L48.6261 486.647H52.1211L53.8611 487.652V489.197H52.3611V487.997H48.3861V491.177H52.1211L53.8611 492.182V496.292L52.1211 497.297H48.4761L46.7361 496.292V494.747H48.2361V495.947H52.3611V492.677H48.6261L46.8861 491.672ZM58.0541 492.497V495.872H62.5391V497.222H56.5541V486.722H62.5391V488.072H58.0541V491.147H61.6391V492.497H58.0541ZM70.565 494.597H72.065V496.292L70.325 497.297H66.38L64.64 496.292V487.652L66.38 486.647H70.325L72.065 487.652V489.347H70.565V487.997H66.14V495.947H70.565V494.597ZM82.4906 496.292L80.7506 497.297H76.3556L74.6156 496.292V487.652L76.3556 486.647H80.7506L82.4906 487.652V496.292ZM76.1156 487.997V495.947H80.9906V487.997H76.1156ZM86.6918 489.287V497.222H85.1918V486.722H86.5568L91.9868 494.657H92.0168V486.722H93.5168V497.222H92.1518L86.7218 489.287H86.6918ZM104.097 496.217L102.357 497.222H96.2221V486.722H102.357L104.097 487.727V496.217ZM97.7221 488.072V495.872H102.597V488.072H97.7221ZM111.358 486.722L115.108 497.222H113.638L112.753 494.732H108.103L107.218 497.222H105.748L109.498 486.722H111.358ZM110.413 488.207L108.583 493.382H112.273L110.443 488.207H110.413ZM120.524 493.037H118.259V497.222H116.759V486.722H122.144L123.884 487.727V492.032L122.144 493.037L124.559 497.222H122.894L120.524 493.037ZM118.259 488.072V491.687H122.384V488.072H118.259ZM129.063 497.222V492.587L125.538 486.722H127.218L129.798 491.192H129.828L132.423 486.722H134.103L130.563 492.602V497.222H129.063ZM148.805 497.222V488.672H148.775L145.685 497.222H144.185L141.11 488.672H141.08V497.222H139.655V486.722H141.77L144.92 495.482H144.95L148.115 486.722H150.23V497.222H148.805ZM159.301 486.722H160.801V496.292L159.061 497.297H154.666L152.926 496.292V486.722H154.426V495.797H159.301V486.722ZM163.502 491.672V487.652L165.242 486.647H168.737L170.477 487.652V489.197H168.977V487.997H165.002V491.177H168.737L170.477 492.182V496.292L168.737 497.297H165.092L163.352 496.292V494.747H164.852V495.947H168.977V492.677H165.242L163.502 491.672ZM173.17 497.222V486.722H174.67V497.222H173.17ZM183.299 494.597H184.799V496.292L183.059 497.297H179.114L177.374 496.292V487.652L179.114 486.647H183.059L184.799 487.652V489.347H183.299V487.997H178.874V495.947H183.299V494.597ZM117.467 504.722L121.217 515.222H119.747L118.862 512.732H114.212L113.327 515.222H111.857L115.607 504.722H117.467ZM116.522 506.207L114.692 511.382H118.382L116.552 506.207H116.522ZM132.018 515.222V506.672H131.988L128.898 515.222H127.398L124.323 506.672H124.293V515.222H122.868V504.722H124.983L128.133 513.482H128.163L131.328 504.722H133.443V515.222H132.018ZM143.264 509.027L141.959 509.777V509.807L143.264 510.557V514.217L141.524 515.222H136.139V504.722H141.524L143.264 505.727V509.027ZM137.639 510.467V513.872H141.764V510.467H137.639ZM137.639 506.072V509.117H141.764V506.072H137.639ZM145.968 515.222V504.722H147.468V515.222H145.968ZM151.672 510.497V513.872H156.157V515.222H150.172V504.722H156.157V506.072H151.672V509.147H155.257V510.497H151.672ZM159.758 507.287V515.222H158.258V504.722H159.623L165.053 512.657H165.083V504.722H166.583V515.222H165.218L159.788 507.287H159.758ZM175.213 512.597H176.713V514.292L174.973 515.297H171.028L169.288 514.292V505.652L171.028 504.647H174.973L176.713 505.652V507.347H175.213V505.997H170.788V513.947H175.213V512.597ZM180.764 510.497V513.872H185.249V515.222H179.264V504.722H185.249V506.072H180.764V509.147H184.349V510.497H180.764Z" fill="#21D1FF"/>
<path d="M225.11 401.222V394.292H225.08L222.71 401.222H220.715L218.33 394.202H218.3V401.222H216.275V390.722H219.065L221.705 398.447H221.735L224.36 390.722H227.135V401.222H225.11ZM234.538 390.722L238.288 401.222H236.218L235.423 398.957H231.493L230.698 401.222H228.628L232.378 390.722H234.538ZM233.443 393.362L232.123 397.157H234.778L233.473 393.362H233.443ZM243.074 392.522V401.222H240.974V392.522H238.139V390.722H245.909V392.522H243.074ZM249.664 396.722V399.422H253.849V401.222H247.564V390.722H253.849V392.522H249.664V394.922H252.949V396.722H249.664ZM263.971 400.292L262.231 401.297H257.536L255.796 400.292V391.652L257.536 390.647H262.231L263.971 391.652V400.292ZM257.896 392.447V399.497H261.871V392.447H257.896ZM274.166 397.547V395.747H277.991V400.292L276.251 401.297H272.006L270.266 400.292V391.652L272.006 390.647H276.251L277.991 391.652V393.797H275.891V392.447H272.366V399.497H275.891V397.547H274.166ZM285.251 390.722L289.001 401.222H286.931L286.136 398.957H282.206L281.411 401.222H279.341L283.091 390.722H285.251ZM284.156 393.362L282.836 397.157H285.491L284.186 393.362H284.156ZM290.499 401.222V390.722H292.599V401.222H290.499ZM302.567 395.027L301.262 395.777V395.807L302.567 396.557V400.217L300.827 401.222H295.142V390.722H300.827L302.567 391.727V395.027ZM297.242 396.692V399.422H300.467V396.692H297.242ZM297.242 392.522V394.892H300.467V392.522H297.242ZM313.293 400.292L311.553 401.297H306.858L305.118 400.292V391.652L306.858 390.647H311.553L313.293 391.652V400.292ZM307.218 392.447V399.497H311.193V392.447H307.218ZM323.805 401.222H321.495L319.245 397.262H317.94V401.222H315.84V390.722H321.525L323.265 391.727V396.257L321.525 397.262L323.805 401.222ZM317.94 392.522V395.462H321.165V392.522H317.94ZM217.15 414.922V422.222H218.28V423.222H217.01L215.85 422.552V414.592L217.01 413.922H218.28V414.922H217.15ZM224.988 421.222H223.448L221.948 418.582H221.078V421.222H219.678V414.222H223.468L224.628 414.892V417.912L223.468 418.582L224.988 421.222ZM221.078 415.422V417.382H223.228V415.422H221.078ZM227.729 418.222V420.022H230.519V421.222H226.329V414.222H230.519V415.422H227.729V417.022H229.919V418.222H227.729ZM235.567 419.172H236.967V420.602L235.807 421.272H232.977L231.817 420.602V414.842L232.977 414.172H235.807L236.967 414.842V416.272H235.567V415.372H233.217V420.072H235.567V419.172ZM244.015 420.602L242.855 421.272H239.725L238.565 420.602V414.842L239.725 414.172H242.855L244.015 414.842V420.602ZM239.965 415.372V420.072H242.615V415.372H239.965ZM251.023 421.222H249.483L247.983 418.582H247.113V421.222H245.713V414.222H249.503L250.663 414.892V417.912L249.503 418.582L251.023 421.222ZM247.113 415.422V417.382H249.263V415.422H247.113ZM257.814 420.552L256.654 421.222H252.364V414.222H256.654L257.814 414.892V420.552ZM253.764 415.422V420.022H256.414V415.422H253.764ZM260.912 418.222V420.022H263.702V421.222H259.512V414.222H263.702V415.422H260.912V417.022H263.102V418.222H260.912ZM270.45 420.552L269.29 421.222H265V414.222H269.29L270.45 414.892V420.552ZM266.4 415.422V420.022H269.05V415.422H266.4ZM283.246 414.222L281.466 421.222H279.966L278.706 416.492H278.686L277.426 421.222H275.926L274.146 414.222H275.506L276.686 419.022H276.706L277.986 414.222H279.406L280.686 419.002H280.706L281.886 414.222H283.246ZM284.346 421.222V414.222H285.746V421.222H284.346ZM290.132 415.422V421.222H288.732V415.422H286.842V414.222H292.022V415.422H290.132ZM294.525 418.222V421.222H293.125V414.222H294.525V417.022H297.275V414.222H298.675V421.222H297.275V418.222H294.525ZM306.209 414.222L308.709 421.222H307.329L306.799 419.712H304.179L303.649 421.222H302.269L304.769 414.222H306.209ZM305.479 415.982L304.599 418.512H306.369L305.499 415.982H305.479ZM217.4 433.222V430.232L215.15 426.222H216.67L218.09 428.842H218.11L219.54 426.222H221.06L218.8 430.242V433.222H217.4ZM224.705 426.222L227.205 433.222H225.825L225.295 431.712H222.675L222.145 433.222H220.765L223.265 426.222H224.705ZM223.975 427.982L223.095 430.512H224.865L223.995 427.982H223.975ZM234.094 433.222V428.602H234.074L232.494 433.222H231.164L229.574 428.542H229.554V433.222H228.204V426.222H230.064L231.824 431.372H231.844L233.594 426.222H235.444V433.222H234.094ZM240.379 426.222L242.879 433.222H241.499L240.969 431.712H238.349L237.819 433.222H236.439L238.939 426.222H240.379ZM239.649 427.982L238.769 430.512H240.539L239.669 427.982H239.649ZM245.277 430.222V433.222H243.877V426.222H245.277V429.022H248.027V426.222H249.427V433.222H248.027V430.222H245.277ZM254.363 426.222L256.863 433.222H255.483L254.953 431.712H252.333L251.803 433.222H250.423L252.923 426.222H254.363ZM253.633 427.982L252.753 430.512H254.523L253.653 427.982H253.633ZM264.209 431.172H265.609V432.602L264.449 433.272H261.619L260.459 432.602V426.842L261.619 426.172H264.449L265.609 426.842V428.272H264.209V427.372H261.859V432.072H264.209V431.172ZM267.207 433.222V426.222H268.607V429.372H268.627L271.237 426.222H272.897L270.137 429.502L273.207 433.222H271.527L269.297 430.502L268.607 431.312V433.222H267.207ZM275.512 427.372V429.382L276.222 428.972H277.702L278.862 429.642V432.602L277.702 433.272H275.272L274.112 432.602V426.842L275.272 426.172H277.702L278.862 426.842V428.272H277.462V427.372H275.512ZM275.512 430.172V432.072H277.462V430.172H275.512ZM280.557 428.562V427.252L282.357 426.222H283.557V432.022H285.157V433.222H280.557V432.022H282.157V427.642L280.557 428.562ZM288.955 429.672V426.842L290.115 426.172H292.645L293.805 426.842V428.172H292.405V427.372H290.355V429.042H292.645L293.805 429.712V432.602L292.645 433.272H290.015L288.855 432.602V431.272H290.255V432.072H292.405V430.342H290.115L288.955 429.672ZM297.058 433.222V430.232L294.808 426.222H296.328L297.748 428.842H297.768L299.198 426.222H300.718L298.458 430.242V433.222H297.058ZM303.119 428.692V433.222H301.719V426.222H303.029L306.049 430.752H306.069V426.222H307.469V433.222H306.159L303.139 428.692H303.119ZM311.86 427.422V433.222H310.46V427.422H308.57V426.222H313.75V427.422H311.86ZM316.254 430.222V433.222H314.854V426.222H316.254V429.022H319.004V426.222H320.404V433.222H319.004V430.222H316.254ZM323.5 430.222V432.022H326.29V433.222H322.1V426.222H326.29V427.422H323.5V429.022H325.69V430.222H323.5ZM327.588 429.672V426.842L328.748 426.172H331.278L332.438 426.842V428.172H331.038V427.372H328.988V429.042H331.278L332.438 429.712V432.602L331.278 433.272H328.648L327.488 432.602V431.272H328.888V432.072H331.038V430.342H328.748L327.588 429.672ZM334.141 433.222V426.222H335.541V433.222H334.141ZM337.037 427.422V426.222H341.787V427.122L338.637 432.002V432.022H341.787V433.222H336.837V432.322L339.987 427.442V427.422H337.037ZM344.584 430.222V432.022H347.374V433.222H343.184V426.222H347.374V427.422H344.584V429.022H346.774V430.222H344.584ZM353.982 433.222H352.442L350.942 430.582H350.072V433.222H348.672V426.222H352.462L353.622 426.892V429.912L352.462 430.582L353.982 433.222ZM350.072 427.422V429.382H352.222V427.422H350.072ZM356.153 434.222V426.922H355.023V425.922H356.293L357.453 426.592V434.552L356.293 435.222H355.023V434.222H356.153ZM216.275 460.897V456.652L218.015 455.647H221.81L223.55 456.652V458.647H221.45V457.447H218.375V459.952H221.81L223.55 460.957V465.292L221.81 466.297H217.865L216.125 465.292V463.297H218.225V464.497H221.45V461.902H218.015L216.275 460.897ZM234.279 465.292L232.539 466.297H227.844L226.104 465.292V456.652L227.844 455.647H232.539L234.279 456.652V465.292ZM228.204 457.447V464.497H232.179V457.447H228.204ZM242.902 455.722H245.002V465.292L243.262 466.297H238.567L236.827 465.292V455.722H238.927V464.347H242.902V455.722ZM249.649 459.427V466.222H247.549V455.722H249.514L254.044 462.517H254.074V455.722H256.174V466.222H254.209L249.679 459.427H249.649ZM266.901 465.217L265.161 466.222H258.726V455.722H265.161L266.901 456.727V465.217ZM260.826 457.522V464.422H264.801V457.522H260.826ZM269.449 466.222V455.722H271.549V464.422H275.134V466.222H269.449ZM278.512 466.222V461.737L275.137 455.722H277.417L279.547 459.652H279.577L281.722 455.722H284.002L280.612 461.752V466.222H278.512ZM216.275 498.897V494.652L218.015 493.647H221.81L223.55 494.652V496.647H221.45V495.447H218.375V497.952H221.81L223.55 498.957V503.292L221.81 504.297H217.865L216.125 503.292V501.297H218.225V502.497H221.45V499.902H218.015L216.275 498.897ZM234.279 503.292L232.539 504.297H227.844L226.104 503.292V494.652L227.844 493.647H232.539L234.279 494.652V503.292ZM228.204 495.447V502.497H232.179V495.447H228.204ZM242.902 493.722H245.002V503.292L243.262 504.297H238.567L236.827 503.292V493.722H238.927V502.347H242.902V493.722ZM249.649 497.427V504.222H247.549V493.722H249.514L254.044 500.517H254.074V493.722H256.174V504.222H254.209L249.679 497.427H249.649ZM266.901 503.217L265.161 504.222H258.726V493.722H265.161L266.901 494.727V503.217ZM260.826 495.522V502.422H264.801V495.522H260.826ZM269.449 504.222V493.722H271.549V502.422H275.134V504.222H269.449ZM278.512 504.222V499.737L275.137 493.722H277.417L279.547 497.652H279.577L281.722 493.722H284.002L280.612 499.752V504.222H278.512Z" fill="#21D1FF"/>
<g filter="url(#filter2_d_2471_2383)">
<path d="M122.434 84.2524H118.122L114.678 76.8604H112.242L111.486 84.2524H107.566L109.61 64.6524H120.222L123.274 66.5284L122.378 74.9844L118.934 76.8604L122.434 84.2524ZM113.166 68.0124L112.606 73.5004H118.626L119.186 68.0124H113.166ZM137.303 64.6524L142.259 84.2524H138.395L137.331 80.0244H129.995L128.091 84.2524H124.227L133.271 64.6524H137.303ZM134.755 69.5804L131.535 76.6644H136.491L134.811 69.5804H134.755ZM160.51 82.3764L157.066 84.2524H145.054L147.098 64.6524H159.11L162.162 66.5284L160.51 82.3764ZM150.654 68.0124L149.31 80.8924H156.73L158.074 68.0124H150.654ZM165.069 84.2524L167.113 64.6524H171.033L168.989 84.2524H165.069ZM189.165 82.5164L185.721 84.3924H176.957L173.905 82.5164L175.613 66.3884L179.057 64.5124H187.821L190.873 66.3884L189.165 82.5164ZM179.365 67.8724L177.993 81.0324H185.413L186.785 67.8724H179.365ZM210.238 68.0124L208.558 84.2524H204.638L206.318 68.0124H201.026L201.39 64.6524H215.894L215.53 68.0124H210.238ZM221.729 75.8524L221.197 80.8924H229.009L228.673 84.2524H216.941L218.985 64.6524H230.717L230.353 68.0124H222.541L222.093 72.4924H228.225L227.861 75.8524H221.729ZM243.424 64.6524L248.38 84.2524H244.516L243.452 80.0244H236.116L234.212 84.2524H230.348L239.392 64.6524H243.424ZM240.876 69.5804L237.656 76.6644H242.612L240.932 69.5804H240.876ZM267.667 84.2524L269.011 71.3164H268.955L263.187 84.2524H259.463L256.383 71.1484H256.327L254.955 84.2524H251.175L253.219 64.6524H258.427L261.843 79.0724H261.899L268.311 64.6524H273.491L271.447 84.2524H267.667Z" fill="#21D1FF"/>
</g>
<g filter="url(#filter3_d_2471_2383)">
<path d="M164.902 130.908L160.057 141.408H157.747L155.092 130.908H157.222L159.157 138.843H159.187L162.772 130.908H164.902ZM173.566 140.478L171.721 141.483H167.026L165.391 140.478L166.306 131.838L168.151 130.833H172.846L174.481 131.838L173.566 140.478ZM168.316 132.633L167.581 139.683H171.556L172.291 132.633H168.316ZM176.024 141.408L177.119 130.908H179.219L178.124 141.408H176.024ZM186.608 138.333H188.708L188.483 140.478L186.638 141.483H182.393L180.758 140.478L181.673 131.838L183.518 130.833H187.763L189.398 131.838L189.173 133.983H187.073L187.208 132.633H183.683L182.948 139.683H186.473L186.608 138.333ZM193.355 136.908L193.07 139.608H197.255L197.075 141.408H190.79L191.885 130.908H198.17L197.975 132.708H193.79L193.55 135.108H196.835L196.64 136.908H193.355ZM208.859 138.333H210.959L210.734 140.478L208.889 141.483H204.644L203.009 140.478L203.924 131.838L205.769 130.833H210.014L211.649 131.838L211.424 133.983H209.324L209.459 132.633H205.934L205.199 139.683H208.724L208.859 138.333ZM218.996 130.908L221.651 141.408H219.581L219.011 139.143H215.081L214.061 141.408H211.991L216.836 130.908H218.996ZM217.631 133.548L215.906 137.343H218.561L217.661 133.548H217.631ZM223.703 136.083L224.153 131.838L225.998 130.833H229.793L231.428 131.838L231.218 133.833H229.118L229.238 132.633H226.163L225.893 135.138H229.328L230.963 136.143L230.513 140.478L228.668 141.483H224.723L223.088 140.478L223.298 138.483H225.398L225.278 139.683H228.503L228.773 137.088H225.338L223.703 136.083ZM237.912 132.708L237.012 141.408H234.912L235.812 132.708H232.977L233.172 130.908H240.942L240.747 132.708H237.912Z" fill="#21D1FF"/>
</g>
<path d="M111.217 167.065V175H109.717V164.5H111.082L116.512 172.435H116.542V164.5H118.042V175H116.677L111.247 167.065H111.217ZM125.307 164.5L129.057 175H127.587L126.702 172.51H122.052L121.167 175H119.697L123.447 164.5H125.307ZM124.362 165.985L122.532 171.16H126.222L124.392 165.985H124.362ZM134.473 170.815H132.208V175H130.708V164.5H136.093L137.833 165.505V169.81L136.093 170.815L138.508 175H136.843L134.473 170.815ZM132.208 165.85V169.465H136.333V165.85H132.208ZM144.303 170.815H142.038V175H140.538V164.5H145.923L147.662 165.505V169.81L145.923 170.815L148.338 175H146.673L144.303 170.815ZM142.038 165.85V169.465H146.163V165.85H142.038ZM154.927 164.5L158.677 175H157.207L156.322 172.51H151.672L150.787 175H149.317L153.067 164.5H154.927ZM153.982 165.985L152.152 171.16H155.842L154.012 165.985H153.982ZM163.165 165.85V175H161.665V165.85H158.68V164.5H166.15V165.85H163.165ZM175.82 174.07L174.08 175.075H169.685L167.945 174.07V165.43L169.685 164.425H174.08L175.82 165.43V174.07ZM169.445 165.775V173.725H174.32V165.775H169.445ZM182.286 170.815H180.021V175H178.521V164.5H183.906L185.646 165.505V169.81L183.906 170.815L186.321 175H184.656L182.286 170.815ZM180.021 165.85V169.465H184.146V165.85H180.021ZM83.7232 202.375H85.2232V204.07L83.4832 205.075H79.5382L77.7982 204.07V195.43L79.5382 194.425H83.4832L85.2232 195.43V197.125H83.7232V195.775H79.2982V203.725H83.7232V202.375ZM92.3338 194.5L96.0838 205H94.6138L93.7288 202.51H89.0788L88.1938 205H86.7238L90.4738 194.5H92.3338ZM91.3888 195.985L89.5588 201.16H93.2488L91.4188 195.985H91.3888ZM97.7348 205V194.5H102.97L104.71 195.505V199.96L102.97 200.965H99.2348V205H97.7348ZM99.2348 195.85V199.615H103.21V195.85H99.2348ZM110.695 195.85V205H109.195V195.85H106.21V194.5H113.68V195.85H110.695ZM119.287 194.5L123.037 205H121.567L120.682 202.51H116.032L115.147 205H113.677L117.427 194.5H119.287ZM118.342 195.985L116.512 201.16H120.202L118.372 195.985H118.342ZM124.688 205V194.5H126.188V205H124.688ZM130.392 197.065V205H128.892V194.5H130.257L135.687 202.435H135.717V194.5H137.217V205H135.852L130.422 197.065H130.392ZM143.819 205V194.5H145.319V203.65H149.204V205H143.819ZM155.556 194.5L159.306 205H157.836L156.951 202.51H152.301L151.416 205H149.946L153.696 194.5H155.556ZM154.611 195.985L152.781 201.16H156.471L154.641 195.985H154.611ZM162.539 205V200.365L159.014 194.5H160.694L163.274 198.97H163.304L165.899 194.5H167.579L164.039 200.38V205H162.539ZM170.734 197.065V205H169.234V194.5H170.599L176.029 202.435H176.059V194.5H177.559V205H176.194L170.764 197.065H170.734ZM181.764 200.275V203.65H186.249V205H180.264V194.5H186.249V195.85H181.764V198.925H185.349V200.275H181.764ZM136.65 235V226.45H136.62L133.53 235H132.03L128.955 226.45H128.925V235H127.5V224.5H129.615L132.765 233.26H132.795L135.96 224.5H138.075V235H136.65ZM148.647 234.07L146.907 235.075H142.512L140.772 234.07V225.43L142.512 224.425H146.907L148.647 225.43V234.07ZM142.272 225.775V233.725H147.147V225.775H142.272ZM154.933 225.85V235H153.433V225.85H150.448V224.5H157.918V225.85H154.933ZM161.212 230.275V235H159.712V224.5H161.212V228.925H166.237V224.5H167.737V235H166.237V230.275H161.212ZM171.935 230.275V233.65H176.42V235H170.435V224.5H176.42V225.85H171.935V228.925H175.52V230.275H171.935ZM182.286 230.815H180.021V235H178.521V224.5H183.906L185.646 225.505V229.81L183.906 230.815L186.321 235H184.656L182.286 230.815ZM180.021 225.85V229.465H184.146V225.85H180.021ZM111.117 255.3L114.657 244.2H116.007L112.467 255.3H111.117ZM121.7 249.45V245.43L123.44 244.425H126.935L128.675 245.43V246.975H127.175V245.775H123.2V248.955H126.935L128.675 249.96V254.07L126.935 255.075H123.29L121.55 254.07V252.525H123.05V253.725H127.175V250.455H123.44L121.7 249.45ZM132.868 250.275V255H131.368V244.5H132.868V248.925H137.893V244.5H139.393V255H137.893V250.275H132.868ZM142.09 255V244.5H143.59V255H142.09ZM146.294 255V244.5H151.529L153.269 245.505V249.96L151.529 250.965H147.794V255H146.294ZM147.794 245.85V249.615H151.769V245.85H147.794ZM155.669 249.3V244.05H157.919V244.68L156.299 249.3H155.669ZM160.621 249.45V245.43L162.361 244.425H165.856L167.596 245.43V246.975H166.096V245.775H162.121V248.955H165.856L167.596 249.96V254.07L165.856 255.075H162.211L160.471 254.07V252.525H161.971V253.725H166.096V250.455H162.361L160.621 249.45ZM178.745 244.5L182.495 255H181.025L180.14 252.51H175.49L174.605 255H173.135L176.885 244.5H178.745ZM177.8 245.985L175.97 251.16H179.66L177.83 245.985H177.8ZM184.146 255V244.5H185.646V255H184.146ZM45.9766 285V276.45H45.9466L42.8566 285H41.3566L38.2816 276.45H38.2516V285H36.8266V274.5H38.9416L42.0916 283.26H42.1216L45.2866 274.5H47.4016V285H45.9766ZM50.098 285V274.5H51.598V285H50.098ZM54.3021 279.45V275.43L56.0421 274.425H59.5371L61.2771 275.43V276.975H59.7771V275.775H55.8021V278.955H59.5371L61.2771 279.96V284.07L59.5371 285.075H55.8921L54.1521 284.07V282.525H55.6521V283.725H59.7771V280.455H56.0421L54.3021 279.45ZM67.5551 275.85V285H66.0551V275.85H63.0701V274.5H70.5401V275.85H67.5551ZM73.8344 280.275V283.65H78.3194V285H72.3344V274.5H78.3194V275.85H73.8344V278.925H77.4194V280.275H73.8344ZM84.1853 280.815H81.9203V285H80.4203V274.5H85.8053L87.5453 275.505V279.81L85.8053 280.815L88.2203 285H86.5553L84.1853 280.815ZM81.9203 275.85V279.465H86.0453V275.85H81.9203ZM90.2494 285V274.5H91.7494V285H90.2494ZM102.329 284.07L100.589 285.075H96.1935L94.4535 284.07V275.43L96.1935 274.425H100.589L102.329 275.43V284.07ZM95.9535 275.775V283.725H100.829V275.775H95.9535ZM111.405 274.5H112.905V284.07L111.165 285.075H106.77L105.03 284.07V274.5H106.53V283.575H111.405V274.5ZM115.606 279.45V275.43L117.346 274.425H120.841L122.581 275.43V276.975H121.081V275.775H117.106V278.955H120.841L122.581 279.96V284.07L120.841 285.075H117.196L115.456 284.07V282.525H116.956V283.725H121.081V280.455H117.346L115.606 279.45ZM141.71 274.5L139.01 285H137.225L135.005 276.585H134.975L132.755 285H130.97L128.27 274.5H129.725L131.855 283.08H131.885L134.15 274.5H135.83L138.08 283.08H138.11L140.255 274.5H141.71ZM151.386 284.07L149.646 285.075H145.251L143.511 284.07V275.43L145.251 274.425H149.646L151.386 275.43V284.07ZM145.011 275.775V283.725H149.886V275.775H145.011ZM163.237 285V276.45H163.207L160.117 285H158.617L155.542 276.45H155.512V285H154.087V274.5H156.202L159.352 283.26H159.382L162.547 274.5H164.662V285H163.237ZM171.919 274.5L175.669 285H174.199L173.314 282.51H168.664L167.779 285H166.309L170.059 274.5H171.919ZM170.974 275.985L169.144 281.16H172.834L171.004 275.985H170.974ZM178.82 277.065V285H177.32V274.5H178.685L184.115 282.435H184.145V274.5H185.645V285H184.28L178.85 277.065H178.82ZM72.5623 305.3L76.1023 294.2H77.4523L73.9123 305.3H72.5623ZM92.2949 305V296.45H92.2649L89.1749 305H87.6749L84.5999 296.45H84.5699V305H83.1449V294.5H85.2599L88.4099 303.26H88.4399L91.6049 294.5H93.7199V305H92.2949ZM104.291 304.07L102.551 305.075H98.1564L96.4164 304.07V295.43L98.1564 294.425H102.551L104.291 295.43V304.07ZM97.9164 295.775V303.725H102.791V295.775H97.9164ZM110.578 295.85V305H109.078V295.85H106.093V294.5H113.563V295.85H110.578ZM116.857 300.275V305H115.357V294.5H116.857V298.925H121.882V294.5H123.382V305H121.882V300.275H116.857ZM127.579 300.275V303.65H132.064V305H126.079V294.5H132.064V295.85H127.579V298.925H131.164V300.275H127.579ZM137.93 300.815H135.665V305H134.165V294.5H139.55L141.29 295.505V299.81L139.55 300.815L141.965 305H140.3L137.93 300.815ZM135.665 295.85V299.465H139.79V295.85H135.665ZM152.451 294.5L156.201 305H154.731L153.846 302.51H149.196L148.311 305H146.841L150.591 294.5H152.451ZM151.506 295.985L149.676 301.16H153.366L151.536 295.985H151.506ZM157.852 305V294.5H159.352V303.65H163.237V305H157.852ZM165.03 305V294.5H166.53V305H165.03ZM170.734 300.275V303.65H175.219V305H169.234V294.5H175.219V295.85H170.734V298.925H174.319V300.275H170.734ZM178.82 297.065V305H177.32V294.5H178.685L184.115 302.435H184.145V294.5H185.645V305H184.28L178.85 297.065H178.82Z" fill="#21D1FF"/>
<path d="M217.275 175.462V164.962H222.81L224.55 165.967V170.647L222.81 171.652H219.375V175.462H217.275ZM219.375 166.762V169.852H222.45V166.762H219.375ZM231.51 164.962L235.26 175.462H233.19L232.395 173.197H228.465L227.67 175.462H225.6L229.35 164.962H231.51ZM230.415 167.602L229.095 171.397H231.75L230.445 167.602H230.415ZM242.832 164.962H244.932V174.532L243.192 175.537H238.497L236.757 174.532V164.962H238.857V173.587H242.832V164.962ZM247.48 175.462V164.962H249.58V173.662H253.165V175.462H247.48ZM264.34 172.387H266.44V174.532L264.7 175.537H260.455L258.715 174.532V165.892L260.455 164.887H264.7L266.44 165.892V168.037H264.34V166.687H260.815V173.737H264.34V172.387ZM276.803 175.462H274.493L272.243 171.502H270.938V175.462H268.838V164.962H274.523L276.263 165.967V170.497L274.523 171.502L276.803 175.462ZM270.938 166.762V169.702H274.163V166.762H270.938ZM286.988 174.532L285.248 175.537H280.553L278.813 174.532V165.892L280.553 164.887H285.248L286.988 165.892V174.532ZM280.913 166.687V173.737H284.888V166.687H280.913ZM289.536 170.137V165.892L291.276 164.887H295.071L296.811 165.892V167.887H294.711V166.687H291.636V169.192H295.071L296.811 170.197V174.532L295.071 175.537H291.126L289.386 174.532V172.537H291.486V173.737H294.711V171.142H291.276L289.536 170.137ZM299.365 170.137V165.892L301.105 164.887H304.9L306.64 165.892V167.887H304.54V166.687H301.465V169.192H304.9L306.64 170.197V174.532L304.9 175.537H300.955L299.215 174.532V172.537H301.315V173.737H304.54V171.142H301.105L299.365 170.137ZM222.135 194.962L225.885 205.462H223.815L223.02 203.197H219.09L218.295 205.462H216.225L219.975 194.962H222.135ZM221.04 197.602L219.72 201.397H222.375L221.07 197.602H221.04ZM227.382 205.462V194.962H229.482V203.662H233.067V205.462H227.382ZM236.821 200.962V203.662H241.006V205.462H234.721V194.962H241.006V196.762H236.821V199.162H240.106V200.962H236.821ZM242.054 205.462L245.444 200.092L242.204 194.962H244.574L246.629 198.217L248.699 194.962H251.069L247.814 200.092L251.219 205.462H248.849L246.629 201.967L244.424 205.462H242.054ZM256.767 205.462V194.962H258.867V199.687H258.897L262.812 194.962H265.302L261.162 199.882L265.767 205.462H263.247L259.902 201.382L258.867 202.597V205.462H256.767ZM267.124 205.462V194.962H269.224V205.462H267.124ZM271.767 205.462V194.962H273.867V205.462H271.767ZM278.511 200.962V205.462H276.411V194.962H282.846V196.762H278.511V199.162H281.946V200.962H278.511ZM286.597 198.667V205.462H284.497V194.962H286.462L290.992 201.757H291.022V194.962H293.122V205.462H291.157L286.627 198.667H286.597ZM297.773 200.962V203.662H301.958V205.462H295.673V194.962H301.958V196.762H297.773V199.162H301.058V200.962H297.773ZM311.871 205.462H309.561L307.311 201.502H306.006V205.462H303.906V194.962H309.591L311.331 195.967V200.497L309.591 201.502L311.871 205.462ZM306.006 196.762V199.702H309.231V196.762H306.006ZM222.135 224.962L225.885 235.462H223.815L223.02 233.197H219.09L218.295 235.462H216.225L219.975 224.962H222.135ZM221.04 227.602L219.72 231.397H222.375L221.07 227.602H221.04ZM227.382 235.462V224.962H229.482V233.662H233.067V235.462H227.382ZM236.821 230.962V233.662H241.006V235.462H234.721V224.962H241.006V226.762H236.821V229.162H240.106V230.962H236.821ZM242.954 230.137V225.892L244.694 224.887H248.489L250.229 225.892V227.887H248.129V226.687H245.054V229.192H248.489L250.229 230.197V234.532L248.489 235.537H244.544L242.804 234.532V232.537H244.904V233.737H248.129V231.142H244.694L242.954 230.137ZM252.783 230.137V225.892L254.523 224.887H258.318L260.058 225.892V227.887H257.958V226.687H254.883V229.192H258.318L260.058 230.197V234.532L258.318 235.537H254.373L252.633 234.532V232.537H254.733V233.737H257.958V231.142H254.523L252.783 230.137ZM267.472 224.962L271.222 235.462H269.152L268.357 233.197H264.427L263.632 235.462H261.562L265.312 224.962H267.472ZM266.377 227.602L265.057 231.397H267.712L266.407 227.602H266.377ZM274.819 228.667V235.462H272.719V224.962H274.684L279.214 231.757H279.244V224.962H281.344V235.462H279.379L274.849 228.667H274.819ZM292.071 234.457L290.331 235.462H283.896V224.962H290.331L292.071 225.967V234.457ZM285.996 226.762V233.662H289.971V226.762H285.996ZM302.584 235.462H300.274L298.024 231.502H296.719V235.462H294.619V224.962H300.304L302.044 225.967V230.497L300.304 231.502L302.584 235.462ZM296.719 226.762V229.702H299.944V226.762H296.719ZM309.454 224.962L313.204 235.462H311.134L310.339 233.197H306.409L305.614 235.462H303.544L307.294 224.962H309.454ZM308.359 227.602L307.039 231.397H309.694L308.389 227.602H308.359ZM222.9 252.387H225V254.532L223.26 255.537H219.015L217.275 254.532V245.892L219.015 244.887H223.26L225 245.892V248.037H222.9V246.687H219.375V253.737H222.9V252.387ZM232.257 244.962L236.007 255.462H233.937L233.142 253.197H229.212L228.417 255.462H226.347L230.097 244.962H232.257ZM231.162 247.602L229.842 251.397H232.497L231.192 247.602H231.162ZM245.469 255.462H243.159L240.909 251.502H239.604V255.462H237.504V244.962H243.189L244.929 245.967V250.497L243.189 251.502L245.469 255.462ZM239.604 246.762V249.702H242.829V246.762H239.604ZM254.905 249.267L253.6 250.017V250.047L254.905 250.797V254.457L253.165 255.462H247.48V244.962H253.165L254.905 245.967V249.267ZM249.58 250.932V253.662H252.805V250.932H249.58ZM249.58 246.762V249.132H252.805V246.762H249.58ZM265.631 254.532L263.891 255.537H259.196L257.456 254.532V245.892L259.196 244.887H263.891L265.631 245.892V254.532ZM259.556 246.687V253.737H263.531V246.687H259.556ZM270.278 248.667V255.462H268.178V244.962H270.143L274.673 251.757H274.703V244.962H276.803V255.462H274.838L270.308 248.667H270.278ZM281.455 250.962V253.662H285.64V255.462H279.355V244.962H285.64V246.762H281.455V249.162H284.74V250.962H281.455ZM295.553 255.462H293.243L290.993 251.502H289.688V255.462H287.588V244.962H293.273L295.013 245.967V250.497L293.273 251.502L295.553 255.462ZM289.688 246.762V249.702H292.913V246.762H289.688ZM305.738 254.532L303.998 255.537H299.303L297.563 254.532V245.892L299.303 244.887H303.998L305.738 245.892V254.532ZM299.663 246.687V253.737H303.638V246.687H299.663ZM220.8 283.737V274.962H222.9V284.532L221.16 285.537H217.965L216.225 284.532V281.637H218.325V283.737H220.8ZM230.309 274.962L234.059 285.462H231.989L231.194 283.197H227.264L226.469 285.462H224.399L228.149 274.962H230.309ZM229.214 277.602L227.894 281.397H230.549L229.244 277.602H229.214ZM237.656 280.962V285.462H235.556V274.962H237.656V279.162H241.781V274.962H243.881V285.462H241.781V280.962H237.656ZM255.26 285.462V278.532H255.23L252.86 285.462H250.865L248.48 278.442H248.45V285.462H246.425V274.962H249.215L251.855 282.687H251.885L254.51 274.962H257.285V285.462H255.26ZM264.689 274.962L268.439 285.462H266.369L265.574 283.197H261.644L260.849 285.462H258.779L262.529 274.962H264.689ZM263.594 277.602L262.274 281.397H264.929L263.624 277.602H263.594ZM269.936 285.462V274.962H272.036V285.462H269.936ZM280.205 282.387H282.305V284.532L280.565 285.537H276.32L274.58 284.532V275.892L276.32 274.887H280.565L282.305 275.892V278.037H280.205V276.687H276.68V283.737H280.205V282.387ZM289.562 274.962L293.312 285.462H291.242L290.447 283.197H286.517L285.722 285.462H283.652L287.402 274.962H289.562ZM288.467 277.602L287.147 281.397H289.802L288.497 277.602H288.467ZM221.025 301.787V299.987H224.85V304.532L223.11 305.537H218.865L217.125 304.532V295.892L218.865 294.887H223.11L224.85 295.892V298.037H222.75V296.687H219.225V303.737H222.75V301.787H221.025ZM227.251 305.462V294.962H229.351V303.662H232.936V305.462H227.251ZM239.449 294.962L243.199 305.462H241.129L240.334 303.197H236.404L235.609 305.462H233.539L237.289 294.962H239.449ZM238.354 297.602L237.034 301.397H239.689L238.384 297.602H238.354ZM246.797 298.667V305.462H244.697V294.962H246.662L251.192 301.757H251.222V294.962H253.322V305.462H251.357L246.827 298.667H246.797ZM264.634 294.962L260.884 305.462H258.574L254.824 294.962H256.954L259.729 302.897H259.759L262.504 294.962H264.634ZM266.128 305.462V294.962H268.228V305.462H266.128ZM270.771 305.462V294.962H272.871V303.662H276.456V305.462H270.771ZM278.11 305.462V294.962H280.21V303.662H283.795V305.462H278.11ZM287.549 300.962V303.662H291.734V305.462H285.449V294.962H291.734V296.762H287.549V299.162H290.834V300.962H287.549Z" fill="#21D1FF"/>
</g>
<defs>
<filter id="filter0_d_2471_2383" x="-1" y="0" width="395" height="579" filterUnits="userSpaceOnUse" color-interpolation-filters="sRGB">
<feFlood flood-opacity="0" result="BackgroundImageFix"/>
<feColorMatrix in="SourceAlpha" type="matrix" values="0 0 0 0 0 0 0 0 0 0 0 0 0 0 0 0 0 0 127 0" result="hardAlpha"/>
<feOffset/>
<feGaussianBlur stdDeviation="10"/>
<feComposite in2="hardAlpha" operator="out"/>
<feColorMatrix type="matrix" values="0 0 0 0 0.129412 0 0 0 0 0.819608 0 0 0 0 1 0 0 0 1 0"/>
<feBlend mode="normal" in2="BackgroundImageFix" result="effect1_dropShadow_2471_2383"/>
<feBlend mode="normal" in="SourceGraphic" in2="effect1_dropShadow_2471_2383" result="shape"/>
</filter>
<filter id="filter1_d_2471_2383" x="123.494" y="357.425" width="148.855" height="18.6499" filterUnits="userSpaceOnUse" color-interpolation-filters="sRGB">
<feFlood flood-opacity="0" result="BackgroundImageFix"/>
<feColorMatrix in="SourceAlpha" type="matrix" values="0 0 0 0 0 0 0 0 0 0 0 0 0 0 0 0 0 0 127 0" result="hardAlpha"/>
<feOffset dy="4"/>
<feGaussianBlur stdDeviation="2"/>
<feComposite in2="hardAlpha" operator="out"/>
<feColorMatrix type="matrix" values="0 0 0 0 0 0 0 0 0 0 0 0 0 0 0 0 0 0 0.5 0"/>
<feBlend mode="normal" in2="BackgroundImageFix" result="effect1_dropShadow_2471_2383"/>
<feBlend mode="normal" in="SourceGraphic" in2="effect1_dropShadow_2471_2383" result="shape"/>
</filter>
<filter id="filter2_d_2471_2383" x="103.565" y="64.5125" width="173.925" height="27.88" filterUnits="userSpaceOnUse" color-interpolation-filters="sRGB">
<feFlood flood-opacity="0" result="BackgroundImageFix"/>
<feColorMatrix in="SourceAlpha" type="matrix" values="0 0 0 0 0 0 0 0 0 0 0 0 0 0 0 0 0 0 127 0" result="hardAlpha"/>
<feOffset dy="4"/>
<feGaussianBlur stdDeviation="2"/>
<feComposite in2="hardAlpha" operator="out"/>
<feColorMatrix type="matrix" values="0 0 0 0 0 0 0 0 0 0 0 0 0 0 0 0 0 0 0.5 0"/>
<feBlend mode="normal" in2="BackgroundImageFix" result="effect1_dropShadow_2471_2383"/>
<feBlend mode="normal" in="SourceGraphic" in2="effect1_dropShadow_2471_2383" result="shape"/>
</filter>
<filter id="filter3_d_2471_2383" x="151.092" y="130.833" width="93.8501" height="18.6499" filterUnits="userSpaceOnUse" color-interpolation-filters="sRGB">
<feFlood flood-opacity="0" result="BackgroundImageFix"/>
<feColorMatrix in="SourceAlpha" type="matrix" values="0 0 0 0 0 0 0 0 0 0 0 0 0 0 0 0 0 0 127 0" result="hardAlpha"/>
<feOffset dy="4"/>
<feGaussianBlur stdDeviation="2"/>
<feComposite in2="hardAlpha" operator="out"/>
<feColorMatrix type="matrix" values="0 0 0 0 0 0 0 0 0 0 0 0 0 0 0 0 0 0 0.5 0"/>
<feBlend mode="normal" in2="BackgroundImageFix" result="effect1_dropShadow_2471_2383"/>
<feBlend mode="normal" in="SourceGraphic" in2="effect1_dropShadow_2471_2383" result="shape"/>
</filter>
</defs>
</svg>
