<svg width="393" height="690" viewBox="0 0 393 690" fill="none" xmlns="http://www.w3.org/2000/svg">
<g filter="url(#filter0_d_2471_2383)">
<mask id="path-1-inside-1_2471_2383" fill="white">
<path fill-rule="evenodd" clip-rule="evenodd" d="M19 20L118.647 20L122.114 31.1217L268.886 31.1217L272.353 20L374 20L374 670H266.838L260.641 660.605H131.359L125.162 670H19L19 20Z"/>
</mask>
<path fill-rule="evenodd" clip-rule="evenodd" d="M19 20L118.647 20L122.114 31.1217L268.886 31.1217L272.353 20L374 20L374 670H266.838L260.641 660.605H131.359L125.162 670H19L19 20Z" fill="#363636" fill-opacity="0.24"/>
<path d="M118.647 20L119.601 19.7024L119.382 19H118.647V20ZM19 20V19H18V20H19ZM122.114 31.1217L121.159 31.4193L121.378 32.1217H122.114V31.1217ZM268.886 31.1217V32.1217H269.622L269.841 31.4193L268.886 31.1217ZM272.353 20V19H271.618L271.399 19.7024L272.353 20ZM374 20H375V19H374V20ZM374 670V671H375V670H374ZM266.838 670L266.003 670.551L266.299 671H266.838V670ZM260.641 660.605L261.475 660.054L261.179 659.605H260.641V660.605ZM131.359 660.605V659.605H130.821L130.525 660.054L131.359 660.605ZM125.162 670V671H125.701L125.997 670.551L125.162 670ZM19 670H18V671H19V670ZM118.647 19L19 19V21L118.647 21V19ZM123.068 30.8241L119.601 19.7024L117.692 20.2976L121.159 31.4193L123.068 30.8241ZM268.886 30.1217L122.114 30.1217V32.1217L268.886 32.1217V30.1217ZM271.399 19.7024L267.932 30.8241L269.841 31.4193L273.308 20.2976L271.399 19.7024ZM374 19L272.353 19V21L374 21V19ZM375 670L375 20H373L373 670H375ZM266.838 671H374V669H266.838V671ZM267.673 669.449L261.475 660.054L259.806 661.155L266.003 670.551L267.673 669.449ZM260.641 659.605H131.359V661.605H260.641V659.605ZM130.525 660.054L124.327 669.449L125.997 670.551L132.194 661.155L130.525 660.054ZM19 671H125.162V669H19V671ZM18 20L18 670H20L20 20H18Z" fill="#21D1FF" mask="url(#path-1-inside-1_2471_2383)"/>
<g filter="url(#filter1_d_2471_2383)">
<path d="M174.329 126.5L170.564 137H168.314L167.159 129.905H167.129L164.504 137H162.254L160.679 126.5H162.719L163.739 133.7H163.769L166.439 126.5H168.569L169.739 133.67H169.769L172.289 126.5H174.329ZM182.849 137H180.539L178.694 133.04H177.389L176.984 137H174.884L175.979 126.5H181.664L183.299 127.505L182.819 132.035L180.974 133.04L182.849 137ZM177.884 128.3L177.584 131.24H180.809L181.109 128.3H177.884ZM184.859 137L185.954 126.5H188.054L186.959 137H184.859ZM194.438 128.3L193.538 137H191.438L192.338 128.3H189.503L189.698 126.5H197.468L197.273 128.3H194.438ZM200.593 132.5L200.308 135.2H204.493L204.313 137H198.028L199.123 126.5H205.408L205.213 128.3H201.028L200.788 130.7H204.073L203.878 132.5H200.593ZM214.226 137H211.916L210.071 133.04H208.766L208.361 137H206.261L207.356 126.5H213.041L214.676 127.505L214.196 132.035L212.351 133.04L214.226 137ZM209.261 128.3L208.961 131.24H212.186L212.486 128.3H209.261ZM216.791 131.675L217.241 127.43L219.086 126.425H222.881L224.516 127.43L224.306 129.425H222.206L222.326 128.225H219.251L218.981 130.73H222.416L224.051 131.735L223.601 136.07L221.756 137.075H217.811L216.176 136.07L216.386 134.075H218.486L218.366 135.275H221.591L221.861 132.68H218.426L216.791 131.675Z" fill="#21D1FF"/>
</g>
<path d="M115.488 175V168.07H115.458L113.088 175H111.093L108.708 167.98H108.678V175H106.653V164.5H109.443L112.083 172.225H112.113L114.738 164.5H117.513V175H115.488ZM124.916 164.5L128.666 175H126.596L125.801 172.735H121.871L121.076 175H119.006L122.756 164.5H124.916ZM123.821 167.14L122.501 170.935H125.156L123.851 167.14H123.821ZM133.452 166.3V175H131.352V166.3H128.517V164.5H136.287V166.3H133.452ZM140.042 170.5V173.2H144.227V175H137.942V164.5H144.227V166.3H140.042V168.7H143.327V170.5H140.042ZM154.349 174.07L152.609 175.075H147.914L146.174 174.07V165.43L147.914 164.425H152.609L154.349 165.43V174.07ZM148.274 166.225V173.275H152.249V166.225H148.274ZM107.825 191.325V189.525H111.65V194.07L109.91 195.075H105.665L103.925 194.07V185.43L105.665 184.425H109.91L111.65 185.43V187.575H109.55V186.225H106.025V193.275H109.55V191.325H107.825ZM118.91 184.5L122.66 195H120.59L119.795 192.735H115.865L115.07 195H113L116.75 184.5H118.91ZM117.815 187.14L116.495 190.935H119.15L117.845 187.14H117.815ZM124.158 195V184.5H126.258V195H124.158ZM136.226 188.805L134.921 189.555V189.585L136.226 190.335V193.995L134.486 195H128.801V184.5H134.486L136.226 185.505V188.805ZM130.901 190.47V193.2H134.126V190.47H130.901ZM130.901 186.3V188.67H134.126V186.3H130.901ZM146.952 194.07L145.212 195.075H140.517L138.777 194.07V185.43L140.517 184.425H145.212L146.952 185.43V194.07ZM140.877 186.225V193.275H144.852V186.225H140.877ZM157.465 195H155.155L152.905 191.04H151.6V195H149.5V184.5H155.185L156.925 185.505V190.035L155.185 191.04L157.465 195ZM151.6 186.3V189.24H154.825V186.3H151.6Z" fill="#21D1FF"/>
<path d="M229.585 172.275V163.5H231.685V173.07L229.945 174.075H226.75L225.01 173.07V170.175H227.11V172.275H229.585ZM239.093 163.5L242.843 174H240.773L239.978 171.735H236.048L235.253 174H233.183L236.933 163.5H239.093ZM237.998 166.14L236.678 169.935H239.333L238.028 166.14H237.998ZM246.441 169.5V174H244.341V163.5H246.441V167.7H250.566V163.5H252.666V174H250.566V169.5H246.441ZM264.045 174V167.07H264.015L261.645 174H259.65L257.265 166.98H257.235V174H255.21V163.5H258L260.64 171.225H260.67L263.295 163.5H266.07V174H264.045ZM273.473 163.5L277.223 174H275.153L274.358 171.735H270.428L269.633 174H267.563L271.313 163.5H273.473ZM272.378 166.14L271.058 169.935H273.713L272.408 166.14H272.378ZM278.721 174V163.5H280.821V174H278.721ZM288.989 170.925H291.089V173.07L289.349 174.075H285.104L283.364 173.07V164.43L285.104 163.425H289.349L291.089 164.43V166.575H288.989V165.225H285.464V172.275H288.989V170.925ZM298.346 163.5L302.096 174H300.026L299.231 171.735H295.301L294.506 174H292.436L296.186 163.5H298.346ZM297.251 166.14L295.931 169.935H298.586L297.281 166.14H297.251ZM232.322 190.325V188.525H236.147V193.07L234.407 194.075H230.162L228.422 193.07V184.43L230.162 183.425H234.407L236.147 184.43V186.575H234.047V185.225H230.522V192.275H234.047V190.325H232.322ZM238.547 194V183.5H240.647V192.2H244.232V194H238.547ZM250.746 183.5L254.496 194H252.426L251.631 191.735H247.701L246.906 194H244.836L248.586 183.5H250.746ZM249.651 186.14L248.331 189.935H250.986L249.681 186.14H249.651ZM258.094 187.205V194H255.994V183.5H257.959L262.489 190.295H262.519V183.5H264.619V194H262.654L258.124 187.205H258.094ZM275.931 183.5L272.181 194H269.871L266.121 183.5H268.251L271.026 191.435H271.056L273.801 183.5H275.931ZM277.424 194V183.5H279.524V194H277.424ZM282.068 194V183.5H284.168V192.2H287.753V194H282.068ZM289.407 194V183.5H291.507V192.2H295.092V194H289.407ZM298.846 189.5V192.2H303.031V194H296.746V183.5H303.031V185.3H298.846V187.7H302.131V189.5H298.846Z" fill="#21D1FF"/>
<g filter="url(#filter2_d_2471_2383)">
<path d="M136.329 479L137.049 472.07H137.019L133.929 479H131.934L130.284 471.98H130.254L129.519 479H127.494L128.589 468.5H131.379L133.209 476.225H133.239L136.674 468.5H139.449L138.354 479H136.329ZM148.067 468.5H150.167L149.162 478.07L147.317 479.075H142.622L140.987 478.07L141.992 468.5H144.092L143.192 477.125H147.167L148.067 468.5ZM152.175 473.675L152.625 469.43L154.47 468.425H158.265L159.9 469.43L159.69 471.425H157.59L157.71 470.225H154.635L154.365 472.73H157.8L159.435 473.735L158.985 478.07L157.14 479.075H153.195L151.56 478.07L151.77 476.075H153.87L153.75 477.275H156.975L157.245 474.68H153.81L152.175 473.675ZM161.449 479L162.544 468.5H164.644L163.549 479H161.449ZM172.032 475.925H174.132L173.907 478.07L172.062 479.075H167.817L166.182 478.07L167.097 469.43L168.942 468.425H173.187L174.822 469.43L174.597 471.575H172.497L172.632 470.225H169.107L168.372 477.275H171.897L172.032 475.925ZM189.096 472.67L188.901 474.47H187.791L187.416 478.07L185.571 479.075H181.836L180.201 478.07L180.591 474.335L181.971 473.585L181.986 473.555L180.756 472.805L181.116 469.43L182.961 468.425H186.096L187.731 469.43L187.506 471.575H185.406L185.541 470.225H183.126L182.871 472.67H185.046L184.851 474.47H182.676L182.391 477.275H185.406L185.781 473.675L187.626 472.67H189.096ZM194.538 473.675L194.988 469.43L196.833 468.425H200.628L202.263 469.43L202.053 471.425H199.953L200.073 470.225H196.998L196.728 472.73H200.163L201.798 473.735L201.348 478.07L199.503 479.075H195.558L193.923 478.07L194.133 476.075H196.233L196.113 477.275H199.338L199.608 474.68H196.173L194.538 473.675ZM212.077 478.07L210.232 479.075H205.537L203.902 478.07L204.817 469.43L206.662 468.425H211.357L212.992 469.43L212.077 478.07ZM206.827 470.225L206.092 477.275H210.067L210.802 470.225H206.827ZM221.705 468.5H223.805L222.8 478.07L220.955 479.075H216.26L214.625 478.07L215.63 468.5H217.73L216.83 477.125H220.805L221.705 468.5ZM228.062 472.205L227.357 479H225.257L226.352 468.5H228.317L232.127 475.295H232.157L232.877 468.5H234.977L233.882 479H231.917L228.092 472.205H228.062ZM244.714 477.995L242.869 479H236.434L237.529 468.5H243.964L245.599 469.505L244.714 477.995ZM239.434 470.3L238.714 477.2H242.689L243.409 470.3H239.434ZM253.618 474.5L253.153 479H251.053L252.148 468.5H258.583L258.388 470.3H254.053L253.813 472.7H257.248L257.053 474.5H253.618ZM258.239 479L262.184 473.63L259.484 468.5H261.854L263.564 471.755L265.979 468.5H268.349L264.554 473.63L267.404 479H265.034L263.174 475.505L260.609 479H258.239Z" fill="#21D1FF"/>
</g>
<path d="M64.0928 517.152V508.602H64.0628L60.9728 517.152H59.4728L56.3978 508.602H56.3678V517.152H54.9428V506.652H57.0578L60.2078 515.412H60.2378L63.4028 506.652H65.5178V517.152H64.0928ZM72.7743 506.652L76.5243 517.152H75.0543L74.1693 514.662H69.5193L68.6343 517.152H67.1643L70.9143 506.652H72.7743ZM71.8293 508.137L69.9993 513.312H73.6893L71.8593 508.137H71.8293ZM78.1752 517.152V506.652H79.6752V517.152H78.1752ZM83.8793 509.217V517.152H82.3793V506.652H83.7443L89.1743 514.587H89.2043V506.652H90.7043V517.152H89.3393L83.9093 509.217H83.8793ZM97.3061 517.152V506.652H102.541L104.281 507.657V512.112L102.541 513.117H98.8061V517.152H97.3061ZM98.8061 508.002V511.767H102.781V508.002H98.8061ZM110.446 512.967H108.181V517.152H106.681V506.652H112.066L113.806 507.657V511.962L112.066 512.967L114.481 517.152H112.816L110.446 512.967ZM108.181 508.002V511.617H112.306V508.002H108.181ZM124.385 516.222L122.645 517.227H118.25L116.51 516.222V507.582L118.25 506.577H122.645L124.385 507.582V516.222ZM118.01 507.927V515.877H122.885V507.927H118.01ZM127.086 517.152V506.652H128.586V515.802H132.471V517.152H127.086ZM142.139 516.222L140.399 517.227H136.004L134.264 516.222V507.582L136.004 506.577H140.399L142.139 507.582V516.222ZM135.764 507.927V515.877H140.639V507.927H135.764ZM149.04 513.252V511.902H152.265V516.222L150.525 517.227H146.58L144.84 516.222V507.582L146.58 506.577H150.525L152.265 507.582V509.277H150.765V507.927H146.34V515.877H150.765V513.252H149.04ZM161.337 506.652H162.837V516.222L161.097 517.227H156.702L154.962 516.222V506.652H156.462V515.727H161.337V506.652ZM167.038 512.427V515.802H171.523V517.152H165.538V506.652H171.523V508.002H167.038V511.077H170.623V512.427H167.038ZM185.546 511.047V512.397H184.436V516.222L182.696 517.227H179.261L177.521 516.222V512.487L178.826 511.737V511.707L177.521 510.957V507.582L179.261 506.577H182.096L183.836 507.582V509.277H182.336V507.927H179.021V511.047H181.646V512.397H179.021V515.877H182.936V512.052L184.676 511.047H185.546ZM69.0551 530.427V533.802H73.5401V535.152H67.5551V524.652H73.5401V526.002H69.0551V529.077H72.6401V530.427H69.0551ZM75.641 535.152V524.652H80.876L82.616 525.657V530.112L80.876 531.117H77.141V535.152H75.641ZM77.141 526.002V529.767H81.116V526.002H77.141ZM85.016 535.152V524.652H86.516V535.152H85.016ZM89.2201 535.152V524.652H90.7201V533.802H94.6051V535.152H89.2201ZM104.273 534.222L102.533 535.227H98.1379L96.3979 534.222V525.582L98.1379 524.577H102.533L104.273 525.582V534.222ZM97.8979 525.927V533.877H102.773V525.927H97.8979ZM111.174 531.252V529.902H114.399V534.222L112.659 535.227H108.714L106.974 534.222V525.582L108.714 524.577H112.659L114.399 525.582V527.277H112.899V525.927H108.474V533.877H112.899V531.252H111.174ZM123.471 524.652H124.971V534.222L123.231 535.227H118.836L117.096 534.222V524.652H118.596V533.727H123.471V524.652ZM129.172 530.427V533.802H133.657V535.152H127.672V524.652H133.657V526.002H129.172V529.077H132.757V530.427H129.172ZM148.805 535.152V526.602H148.775L145.685 535.152H144.185L141.11 526.602H141.08V535.152H139.655V524.652H141.77L144.92 533.412H144.95L148.115 524.652H150.23V535.152H148.805ZM159.301 524.652H160.801V534.222L159.061 535.227H154.666L152.926 534.222V524.652H154.426V533.727H159.301V524.652ZM163.502 529.602V525.582L165.242 524.577H168.737L170.477 525.582V527.127H168.977V525.927H165.002V529.107H168.737L170.477 530.112V534.222L168.737 535.227H165.092L163.352 534.222V532.677H164.852V533.877H168.977V530.607H165.242L163.502 529.602ZM173.17 535.152V524.652H174.67V535.152H173.17ZM183.299 532.527H184.799V534.222L183.059 535.227H179.114L177.374 534.222V525.582L179.114 524.577H183.059L184.799 525.582V527.277H183.299V525.927H178.874V533.877H183.299V532.527ZM128.84 544.002V553.152H127.34V544.002H124.355V542.652H131.825V544.002H128.84ZM135.12 548.427V553.152H133.62V542.652H135.12V547.077H140.145V542.652H141.645V553.152H140.145V548.427H135.12ZM145.842 548.427V551.802H150.327V553.152H144.342V542.652H150.327V544.002H145.842V547.077H149.427V548.427H145.842ZM161.578 553.152V544.602H161.548L158.458 553.152H156.958L153.883 544.602H153.853V553.152H152.428V542.652H154.543L157.693 551.412H157.723L160.888 542.652H163.003V553.152H161.578ZM167.2 548.427V551.802H171.685V553.152H165.7V542.652H171.685V544.002H167.2V547.077H170.785V548.427H167.2ZM173.786 547.602V543.582L175.526 542.577H179.021L180.761 543.582V545.127H179.261V543.927H175.286V547.107H179.021L180.761 548.112V552.222L179.021 553.227H175.376L173.636 552.222V550.677H175.136V551.877H179.261V548.607H175.526L173.786 547.602ZM76.207 583.152V574.602H76.177L73.087 583.152H71.587L68.512 574.602H68.482V583.152H67.057V572.652H69.172L72.322 581.412H72.352L75.517 572.652H77.632V583.152H76.207ZM84.8885 572.652L88.6385 583.152H87.1685L86.2835 580.662H81.6335L80.7485 583.152H79.2785L83.0285 572.652H84.8885ZM83.9435 574.137L82.1135 579.312H85.8035L83.9735 574.137H83.9435ZM90.2895 583.152V572.652H91.7895V583.152H90.2895ZM95.9936 575.217V583.152H94.4936V572.652H95.8586L101.289 580.587H101.319V572.652H102.819V583.152H101.454L96.0236 575.217H95.9936ZM109.42 577.602V573.582L111.16 572.577H114.655L116.395 573.582V575.127H114.895V573.927H110.92V577.107H114.655L116.395 578.112V582.222L114.655 583.227H111.01L109.27 582.222V580.677H110.77V581.877H114.895V578.607H111.16L109.42 577.602ZM126.963 582.222L125.223 583.227H120.828L119.088 582.222V573.582L120.828 572.577H125.223L126.963 573.582V582.222ZM120.588 573.927V581.877H125.463V573.927H120.588ZM136.039 572.652H137.539V582.222L135.799 583.227H131.404L129.664 582.222V572.652H131.164V581.727H136.039V572.652ZM141.741 575.217V583.152H140.241V572.652H141.606L147.036 580.587H147.066V572.652H148.566V583.152H147.201L141.771 575.217H141.741ZM159.146 582.147L157.406 583.152H151.271V572.652H157.406L159.146 573.657V582.147ZM152.771 574.002V581.802H157.646V574.002H152.771ZM167.244 578.427V583.152H165.744V572.652H171.879V574.002H167.244V577.077H170.979V578.427H167.244ZM172.783 583.152L176.383 577.797L172.933 572.652H174.613L177.208 576.552L179.818 572.652H181.498L178.033 577.797L181.648 583.152H179.968L177.208 579.027L174.463 583.152H172.783ZM46.8861 607.602V603.582L48.6261 602.577H52.1211L53.8611 603.582V605.127H52.3611V603.927H48.3861V607.107H52.1211L53.8611 608.112V612.222L52.1211 613.227H48.4761L46.7361 612.222V610.677H48.2361V611.877H52.3611V608.607H48.6261L46.8861 607.602ZM58.0541 608.427V611.802H62.5391V613.152H56.5541V602.652H62.5391V604.002H58.0541V607.077H61.6391V608.427H58.0541ZM70.565 610.527H72.065V612.222L70.325 613.227H66.38L64.64 612.222V603.582L66.38 602.577H70.325L72.065 603.582V605.277H70.565V603.927H66.14V611.877H70.565V610.527ZM82.4906 612.222L80.7506 613.227H76.3556L74.6156 612.222V603.582L76.3556 602.577H80.7506L82.4906 603.582V612.222ZM76.1156 603.927V611.877H80.9906V603.927H76.1156ZM86.6918 605.217V613.152H85.1918V602.652H86.5568L91.9868 610.587H92.0168V602.652H93.5168V613.152H92.1518L86.7218 605.217H86.6918ZM104.097 612.147L102.357 613.152H96.2221V602.652H102.357L104.097 603.657V612.147ZM97.7221 604.002V611.802H102.597V604.002H97.7221ZM111.358 602.652L115.108 613.152H113.638L112.753 610.662H108.103L107.218 613.152H105.748L109.498 602.652H111.358ZM110.413 604.137L108.583 609.312H112.273L110.443 604.137H110.413ZM120.524 608.967H118.259V613.152H116.759V602.652H122.144L123.884 603.657V607.962L122.144 608.967L124.559 613.152H122.894L120.524 608.967ZM118.259 604.002V607.617H122.384V604.002H118.259ZM129.063 613.152V608.517L125.538 602.652H127.218L129.798 607.122H129.828L132.423 602.652H134.103L130.563 608.532V613.152H129.063ZM148.805 613.152V604.602H148.775L145.685 613.152H144.185L141.11 604.602H141.08V613.152H139.655V602.652H141.77L144.92 611.412H144.95L148.115 602.652H150.23V613.152H148.805ZM159.301 602.652H160.801V612.222L159.061 613.227H154.666L152.926 612.222V602.652H154.426V611.727H159.301V602.652ZM163.502 607.602V603.582L165.242 602.577H168.737L170.477 603.582V605.127H168.977V603.927H165.002V607.107H168.737L170.477 608.112V612.222L168.737 613.227H165.092L163.352 612.222V610.677H164.852V611.877H168.977V608.607H165.242L163.502 607.602ZM173.17 613.152V602.652H174.67V613.152H173.17ZM183.299 610.527H184.799V612.222L183.059 613.227H179.114L177.374 612.222V603.582L179.114 602.577H183.059L184.799 603.582V605.277H183.299V603.927H178.874V611.877H183.299V610.527ZM117.467 620.652L121.217 631.152H119.747L118.862 628.662H114.212L113.327 631.152H111.857L115.607 620.652H117.467ZM116.522 622.137L114.692 627.312H118.382L116.552 622.137H116.522ZM132.018 631.152V622.602H131.988L128.898 631.152H127.398L124.323 622.602H124.293V631.152H122.868V620.652H124.983L128.133 629.412H128.163L131.328 620.652H133.443V631.152H132.018ZM143.264 624.957L141.959 625.707V625.737L143.264 626.487V630.147L141.524 631.152H136.139V620.652H141.524L143.264 621.657V624.957ZM137.639 626.397V629.802H141.764V626.397H137.639ZM137.639 622.002V625.047H141.764V622.002H137.639ZM145.968 631.152V620.652H147.468V631.152H145.968ZM151.672 626.427V629.802H156.157V631.152H150.172V620.652H156.157V622.002H151.672V625.077H155.257V626.427H151.672ZM159.758 623.217V631.152H158.258V620.652H159.623L165.053 628.587H165.083V620.652H166.583V631.152H165.218L159.788 623.217H159.758ZM175.213 628.527H176.713V630.222L174.973 631.227H171.028L169.288 630.222V621.582L171.028 620.577H174.973L176.713 621.582V623.277H175.213V621.927H170.788V629.877H175.213V628.527ZM180.764 626.427V629.802H185.249V631.152H179.264V620.652H185.249V622.002H180.764V625.077H184.349V626.427H180.764Z" fill="#21D1FF"/>
<path d="M225.11 517.152V510.222H225.08L222.71 517.152H220.715L218.33 510.132H218.3V517.152H216.275V506.652H219.065L221.705 514.377H221.735L224.36 506.652H227.135V517.152H225.11ZM234.538 506.652L238.288 517.152H236.218L235.423 514.887H231.493L230.698 517.152H228.628L232.378 506.652H234.538ZM233.443 509.292L232.123 513.087H234.778L233.473 509.292H233.443ZM243.074 508.452V517.152H240.974V508.452H238.139V506.652H245.909V508.452H243.074ZM249.664 512.652V515.352H253.849V517.152H247.564V506.652H253.849V508.452H249.664V510.852H252.949V512.652H249.664ZM263.971 516.222L262.231 517.227H257.536L255.796 516.222V507.582L257.536 506.577H262.231L263.971 507.582V516.222ZM257.896 508.377V515.427H261.871V508.377H257.896ZM274.166 513.477V511.677H277.991V516.222L276.251 517.227H272.006L270.266 516.222V507.582L272.006 506.577H276.251L277.991 507.582V509.727H275.891V508.377H272.366V515.427H275.891V513.477H274.166ZM285.251 506.652L289.001 517.152H286.931L286.136 514.887H282.206L281.411 517.152H279.341L283.091 506.652H285.251ZM284.156 509.292L282.836 513.087H285.491L284.186 509.292H284.156ZM290.499 517.152V506.652H292.599V517.152H290.499ZM302.567 510.957L301.262 511.707V511.737L302.567 512.487V516.147L300.827 517.152H295.142V506.652H300.827L302.567 507.657V510.957ZM297.242 512.622V515.352H300.467V512.622H297.242ZM297.242 508.452V510.822H300.467V508.452H297.242ZM313.293 516.222L311.553 517.227H306.858L305.118 516.222V507.582L306.858 506.577H311.553L313.293 507.582V516.222ZM307.218 508.377V515.427H311.193V508.377H307.218ZM323.805 517.152H321.495L319.245 513.192H317.94V517.152H315.84V506.652H321.525L323.265 507.657V512.187L321.525 513.192L323.805 517.152ZM317.94 508.452V511.392H321.165V508.452H317.94ZM217.15 530.852V538.152H218.28V539.152H217.01L215.85 538.482V530.522L217.01 529.852H218.28V530.852H217.15ZM224.988 537.152H223.448L221.948 534.512H221.078V537.152H219.678V530.152H223.468L224.628 530.822V533.842L223.468 534.512L224.988 537.152ZM221.078 531.352V533.312H223.228V531.352H221.078ZM227.729 534.152V535.952H230.519V537.152H226.329V530.152H230.519V531.352H227.729V532.952H229.919V534.152H227.729ZM235.567 535.102H236.967V536.532L235.807 537.202H232.977L231.817 536.532V530.772L232.977 530.102H235.807L236.967 530.772V532.202H235.567V531.302H233.217V536.002H235.567V535.102ZM244.015 536.532L242.855 537.202H239.725L238.565 536.532V530.772L239.725 530.102H242.855L244.015 530.772V536.532ZM239.965 531.302V536.002H242.615V531.302H239.965ZM251.023 537.152H249.483L247.983 534.512H247.113V537.152H245.713V530.152H249.503L250.663 530.822V533.842L249.503 534.512L251.023 537.152ZM247.113 531.352V533.312H249.263V531.352H247.113ZM257.814 536.482L256.654 537.152H252.364V530.152H256.654L257.814 530.822V536.482ZM253.764 531.352V535.952H256.414V531.352H253.764ZM260.912 534.152V535.952H263.702V537.152H259.512V530.152H263.702V531.352H260.912V532.952H263.102V534.152H260.912ZM270.45 536.482L269.29 537.152H265V530.152H269.29L270.45 530.822V536.482ZM266.4 531.352V535.952H269.05V531.352H266.4ZM283.246 530.152L281.466 537.152H279.966L278.706 532.422H278.686L277.426 537.152H275.926L274.146 530.152H275.506L276.686 534.952H276.706L277.986 530.152H279.406L280.686 534.932H280.706L281.886 530.152H283.246ZM284.346 537.152V530.152H285.746V537.152H284.346ZM290.132 531.352V537.152H288.732V531.352H286.842V530.152H292.022V531.352H290.132ZM294.525 534.152V537.152H293.125V530.152H294.525V532.952H297.275V530.152H298.675V537.152H297.275V534.152H294.525ZM306.209 530.152L308.709 537.152H307.329L306.799 535.642H304.179L303.649 537.152H302.269L304.769 530.152H306.209ZM305.479 531.912L304.599 534.442H306.369L305.499 531.912H305.479ZM217.4 549.152V546.162L215.15 542.152H216.67L218.09 544.772H218.11L219.54 542.152H221.06L218.8 546.172V549.152H217.4ZM224.705 542.152L227.205 549.152H225.825L225.295 547.642H222.675L222.145 549.152H220.765L223.265 542.152H224.705ZM223.975 543.912L223.095 546.442H224.865L223.995 543.912H223.975ZM234.094 549.152V544.532H234.074L232.494 549.152H231.164L229.574 544.472H229.554V549.152H228.204V542.152H230.064L231.824 547.302H231.844L233.594 542.152H235.444V549.152H234.094ZM240.379 542.152L242.879 549.152H241.499L240.969 547.642H238.349L237.819 549.152H236.439L238.939 542.152H240.379ZM239.649 543.912L238.769 546.442H240.539L239.669 543.912H239.649ZM245.277 546.152V549.152H243.877V542.152H245.277V544.952H248.027V542.152H249.427V549.152H248.027V546.152H245.277ZM254.363 542.152L256.863 549.152H255.483L254.953 547.642H252.333L251.803 549.152H250.423L252.923 542.152H254.363ZM253.633 543.912L252.753 546.442H254.523L253.653 543.912H253.633ZM264.209 547.102H265.609V548.532L264.449 549.202H261.619L260.459 548.532V542.772L261.619 542.102H264.449L265.609 542.772V544.202H264.209V543.302H261.859V548.002H264.209V547.102ZM267.207 549.152V542.152H268.607V545.302H268.627L271.237 542.152H272.897L270.137 545.432L273.207 549.152H271.527L269.297 546.432L268.607 547.242V549.152H267.207ZM275.512 543.302V545.312L276.222 544.902H277.702L278.862 545.572V548.532L277.702 549.202H275.272L274.112 548.532V542.772L275.272 542.102H277.702L278.862 542.772V544.202H277.462V543.302H275.512ZM275.512 546.102V548.002H277.462V546.102H275.512ZM280.557 544.492V543.182L282.357 542.152H283.557V547.952H285.157V549.152H280.557V547.952H282.157V543.572L280.557 544.492ZM288.955 545.602V542.772L290.115 542.102H292.645L293.805 542.772V544.102H292.405V543.302H290.355V544.972H292.645L293.805 545.642V548.532L292.645 549.202H290.015L288.855 548.532V547.202H290.255V548.002H292.405V546.272H290.115L288.955 545.602ZM297.058 549.152V546.162L294.808 542.152H296.328L297.748 544.772H297.768L299.198 542.152H300.718L298.458 546.172V549.152H297.058ZM303.119 544.622V549.152H301.719V542.152H303.029L306.049 546.682H306.069V542.152H307.469V549.152H306.159L303.139 544.622H303.119ZM311.86 543.352V549.152H310.46V543.352H308.57V542.152H313.75V543.352H311.86ZM316.254 546.152V549.152H314.854V542.152H316.254V544.952H319.004V542.152H320.404V549.152H319.004V546.152H316.254ZM323.5 546.152V547.952H326.29V549.152H322.1V542.152H326.29V543.352H323.5V544.952H325.69V546.152H323.5ZM327.588 545.602V542.772L328.748 542.102H331.278L332.438 542.772V544.102H331.038V543.302H328.988V544.972H331.278L332.438 545.642V548.532L331.278 549.202H328.648L327.488 548.532V547.202H328.888V548.002H331.038V546.272H328.748L327.588 545.602ZM334.141 549.152V542.152H335.541V549.152H334.141ZM337.037 543.352V542.152H341.787V543.052L338.637 547.932V547.952H341.787V549.152H336.837V548.252L339.987 543.372V543.352H337.037ZM344.584 546.152V547.952H347.374V549.152H343.184V542.152H347.374V543.352H344.584V544.952H346.774V546.152H344.584ZM353.982 549.152H352.442L350.942 546.512H350.072V549.152H348.672V542.152H352.462L353.622 542.822V545.842L352.462 546.512L353.982 549.152ZM350.072 543.352V545.312H352.222V543.352H350.072ZM356.153 550.152V542.852H355.023V541.852H356.293L357.453 542.522V550.482L356.293 551.152H355.023V550.152H356.153ZM216.275 576.827V572.582L218.015 571.577H221.81L223.55 572.582V574.577H221.45V573.377H218.375V575.882H221.81L223.55 576.887V581.222L221.81 582.227H217.865L216.125 581.222V579.227H218.225V580.427H221.45V577.832H218.015L216.275 576.827ZM234.279 581.222L232.539 582.227H227.844L226.104 581.222V572.582L227.844 571.577H232.539L234.279 572.582V581.222ZM228.204 573.377V580.427H232.179V573.377H228.204ZM242.902 571.652H245.002V581.222L243.262 582.227H238.567L236.827 581.222V571.652H238.927V580.277H242.902V571.652ZM249.649 575.357V582.152H247.549V571.652H249.514L254.044 578.447H254.074V571.652H256.174V582.152H254.209L249.679 575.357H249.649ZM266.901 581.147L265.161 582.152H258.726V571.652H265.161L266.901 572.657V581.147ZM260.826 573.452V580.352H264.801V573.452H260.826ZM269.449 582.152V571.652H271.549V580.352H275.134V582.152H269.449ZM278.512 582.152V577.667L275.137 571.652H277.417L279.547 575.582H279.577L281.722 571.652H284.002L280.612 577.682V582.152H278.512ZM216.275 614.827V610.582L218.015 609.577H221.81L223.55 610.582V612.577H221.45V611.377H218.375V613.882H221.81L223.55 614.887V619.222L221.81 620.227H217.865L216.125 619.222V617.227H218.225V618.427H221.45V615.832H218.015L216.275 614.827ZM234.279 619.222L232.539 620.227H227.844L226.104 619.222V610.582L227.844 609.577H232.539L234.279 610.582V619.222ZM228.204 611.377V618.427H232.179V611.377H228.204ZM242.902 609.652H245.002V619.222L243.262 620.227H238.567L236.827 619.222V609.652H238.927V618.277H242.902V609.652ZM249.649 613.357V620.152H247.549V609.652H249.514L254.044 616.447H254.074V609.652H256.174V620.152H254.209L249.679 613.357H249.649ZM266.901 619.147L265.161 620.152H258.726V609.652H265.161L266.901 610.657V619.147ZM260.826 611.452V618.352H264.801V611.452H260.826ZM269.449 620.152V609.652H271.549V618.352H275.134V620.152H269.449ZM278.512 620.152V615.667L275.137 609.652H277.417L279.547 613.582H279.577L281.722 609.652H284.002L280.612 615.682V620.152H278.512Z" fill="#21D1FF"/>
<g filter="url(#filter3_d_2471_2383)">
<path d="M122.434 88.6588H118.122L114.678 81.2668H112.242L111.486 88.6588H107.566L109.61 69.0588H120.222L123.274 70.9348L122.378 79.3908L118.934 81.2668L122.434 88.6588ZM113.166 72.4188L112.606 77.9068H118.626L119.186 72.4188H113.166ZM137.303 69.0588L142.259 88.6588H138.395L137.331 84.4308H129.995L128.091 88.6588H124.227L133.271 69.0588H137.303ZM134.755 73.9868L131.535 81.0708H136.491L134.811 73.9868H134.755ZM160.51 86.7828L157.066 88.6588H145.054L147.098 69.0588H159.11L162.162 70.9348L160.51 86.7828ZM150.654 72.4188L149.31 85.2988H156.73L158.074 72.4188H150.654ZM165.069 88.6588L167.113 69.0588H171.033L168.989 88.6588H165.069ZM189.165 86.9228L185.721 88.7988H176.957L173.905 86.9228L175.613 70.7948L179.057 68.9188H187.821L190.873 70.7948L189.165 86.9228ZM179.365 72.2788L177.993 85.4388H185.413L186.785 72.2788H179.365ZM210.238 72.4188L208.558 88.6588H204.638L206.318 72.4188H201.026L201.39 69.0588H215.894L215.53 72.4188H210.238ZM221.729 80.2588L221.197 85.2988H229.009L228.673 88.6588H216.941L218.985 69.0588H230.717L230.353 72.4188H222.541L222.093 76.8988H228.225L227.861 80.2588H221.729ZM243.424 69.0588L248.38 88.6588H244.516L243.452 84.4308H236.116L234.212 88.6588H230.348L239.392 69.0588H243.424ZM240.876 73.9868L237.656 81.0708H242.612L240.932 73.9868H240.876ZM267.667 88.6588L269.011 75.7228H268.955L263.187 88.6588H259.463L256.383 75.5548H256.327L254.955 88.6588H251.175L253.219 69.0588H258.427L261.843 83.4788H261.899L268.311 69.0588H273.491L271.447 88.6588H267.667Z" fill="#21D1FF"/>
</g>
<g filter="url(#filter4_d_2471_2383)">
<path d="M161.902 242.5L157.057 253H154.747L152.092 242.5H154.222L156.157 250.435H156.187L159.772 242.5H161.902ZM170.566 252.07L168.721 253.075H164.026L162.391 252.07L163.306 243.43L165.151 242.425H169.846L171.481 243.43L170.566 252.07ZM165.316 244.225L164.581 251.275H168.556L169.291 244.225H165.316ZM173.024 253L174.119 242.5H176.219L175.124 253H173.024ZM183.608 249.925H185.708L185.483 252.07L183.638 253.075H179.393L177.758 252.07L178.673 243.43L180.518 242.425H184.763L186.398 243.43L186.173 245.575H184.073L184.208 244.225H180.683L179.948 251.275H183.473L183.608 249.925ZM190.355 248.5L190.07 251.2H194.255L194.075 253H187.79L188.885 242.5H195.17L194.975 244.3H190.79L190.55 246.7H193.835L193.64 248.5H190.355ZM205.859 249.925H207.959L207.734 252.07L205.889 253.075H201.644L200.009 252.07L200.924 243.43L202.769 242.425H207.014L208.649 243.43L208.424 245.575H206.324L206.459 244.225H202.934L202.199 251.275H205.724L205.859 249.925ZM215.996 242.5L218.651 253H216.581L216.011 250.735H212.081L211.061 253H208.991L213.836 242.5H215.996ZM214.631 245.14L212.906 248.935H215.561L214.661 245.14H214.631ZM220.703 247.675L221.153 243.43L222.998 242.425H226.793L228.428 243.43L228.218 245.425H226.118L226.238 244.225H223.163L222.893 246.73H226.328L227.963 247.735L227.513 252.07L225.668 253.075H221.723L220.088 252.07L220.298 250.075H222.398L222.278 251.275H225.503L225.773 248.68H222.338L220.703 247.675ZM234.912 244.3L234.012 253H231.912L232.812 244.3H229.977L230.172 242.5H237.942L237.747 244.3H234.912Z" fill="#21D1FF"/>
</g>
<path d="M108.217 282.065V290H106.717V279.5H108.082L113.512 287.435H113.542V279.5H115.042V290H113.677L108.247 282.065H108.217ZM122.307 279.5L126.057 290H124.587L123.702 287.51H119.052L118.167 290H116.697L120.447 279.5H122.307ZM121.362 280.985L119.532 286.16H123.222L121.392 280.985H121.362ZM131.473 285.815H129.208V290H127.708V279.5H133.093L134.833 280.505V284.81L133.093 285.815L135.508 290H133.843L131.473 285.815ZM129.208 280.85V284.465H133.333V280.85H129.208ZM141.303 285.815H139.038V290H137.538V279.5H142.923L144.662 280.505V284.81L142.923 285.815L145.338 290H143.673L141.303 285.815ZM139.038 280.85V284.465H143.163V280.85H139.038ZM151.927 279.5L155.677 290H154.207L153.322 287.51H148.672L147.787 290H146.317L150.067 279.5H151.927ZM150.982 280.985L149.152 286.16H152.842L151.012 280.985H150.982ZM160.165 280.85V290H158.665V280.85H155.68V279.5H163.15V280.85H160.165ZM172.82 289.07L171.08 290.075H166.685L164.945 289.07V280.43L166.685 279.425H171.08L172.82 280.43V289.07ZM166.445 280.775V288.725H171.32V280.775H166.445ZM179.286 285.815H177.021V290H175.521V279.5H180.906L182.646 280.505V284.81L180.906 285.815L183.321 290H181.656L179.286 285.815ZM177.021 280.85V284.465H181.146V280.85H177.021ZM80.7232 317.375H82.2232V319.07L80.4832 320.075H76.5382L74.7982 319.07V310.43L76.5382 309.425H80.4832L82.2232 310.43V312.125H80.7232V310.775H76.2982V318.725H80.7232V317.375ZM89.3338 309.5L93.0838 320H91.6138L90.7288 317.51H86.0788L85.1938 320H83.7238L87.4738 309.5H89.3338ZM88.3888 310.985L86.5588 316.16H90.2488L88.4188 310.985H88.3888ZM94.7348 320V309.5H99.9698L101.71 310.505V314.96L99.9698 315.965H96.2348V320H94.7348ZM96.2348 310.85V314.615H100.21V310.85H96.2348ZM107.695 310.85V320H106.195V310.85H103.21V309.5H110.68V310.85H107.695ZM116.287 309.5L120.037 320H118.567L117.682 317.51H113.032L112.147 320H110.677L114.427 309.5H116.287ZM115.342 310.985L113.512 316.16H117.202L115.372 310.985H115.342ZM121.688 320V309.5H123.188V320H121.688ZM127.392 312.065V320H125.892V309.5H127.257L132.687 317.435H132.717V309.5H134.217V320H132.852L127.422 312.065H127.392ZM140.819 320V309.5H142.319V318.65H146.204V320H140.819ZM152.556 309.5L156.306 320H154.836L153.951 317.51H149.301L148.416 320H146.946L150.696 309.5H152.556ZM151.611 310.985L149.781 316.16H153.471L151.641 310.985H151.611ZM159.539 320V315.365L156.014 309.5H157.694L160.274 313.97H160.304L162.899 309.5H164.579L161.039 315.38V320H159.539ZM167.734 312.065V320H166.234V309.5H167.599L173.029 317.435H173.059V309.5H174.559V320H173.194L167.764 312.065H167.734ZM178.764 315.275V318.65H183.249V320H177.264V309.5H183.249V310.85H178.764V313.925H182.349V315.275H178.764ZM133.65 350V341.45H133.62L130.53 350H129.03L125.955 341.45H125.925V350H124.5V339.5H126.615L129.765 348.26H129.795L132.96 339.5H135.075V350H133.65ZM145.647 349.07L143.907 350.075H139.512L137.772 349.07V340.43L139.512 339.425H143.907L145.647 340.43V349.07ZM139.272 340.775V348.725H144.147V340.775H139.272ZM151.933 340.85V350H150.433V340.85H147.448V339.5H154.918V340.85H151.933ZM158.212 345.275V350H156.712V339.5H158.212V343.925H163.237V339.5H164.737V350H163.237V345.275H158.212ZM168.935 345.275V348.65H173.42V350H167.435V339.5H173.42V340.85H168.935V343.925H172.52V345.275H168.935ZM179.286 345.815H177.021V350H175.521V339.5H180.906L182.646 340.505V344.81L180.906 345.815L183.321 350H181.656L179.286 345.815ZM177.021 340.85V344.465H181.146V340.85H177.021ZM108.117 370.3L111.657 359.2H113.007L109.467 370.3H108.117ZM118.7 364.45V360.43L120.44 359.425H123.935L125.675 360.43V361.975H124.175V360.775H120.2V363.955H123.935L125.675 364.96V369.07L123.935 370.075H120.29L118.55 369.07V367.525H120.05V368.725H124.175V365.455H120.44L118.7 364.45ZM129.868 365.275V370H128.368V359.5H129.868V363.925H134.893V359.5H136.393V370H134.893V365.275H129.868ZM139.09 370V359.5H140.59V370H139.09ZM143.294 370V359.5H148.529L150.269 360.505V364.96L148.529 365.965H144.794V370H143.294ZM144.794 360.85V364.615H148.769V360.85H144.794ZM152.669 364.3V359.05H154.919V359.68L153.299 364.3H152.669ZM157.621 364.45V360.43L159.361 359.425H162.856L164.596 360.43V361.975H163.096V360.775H159.121V363.955H162.856L164.596 364.96V369.07L162.856 370.075H159.211L157.471 369.07V367.525H158.971V368.725H163.096V365.455H159.361L157.621 364.45ZM175.745 359.5L179.495 370H178.025L177.14 367.51H172.49L171.605 370H170.135L173.885 359.5H175.745ZM174.8 360.985L172.97 366.16H176.66L174.83 360.985H174.8ZM181.146 370V359.5H182.646V370H181.146ZM42.9766 400V391.45H42.9466L39.8566 400H38.3566L35.2816 391.45H35.2516V400H33.8266V389.5H35.9416L39.0916 398.26H39.1216L42.2866 389.5H44.4016V400H42.9766ZM47.098 400V389.5H48.598V400H47.098ZM51.3021 394.45V390.43L53.0421 389.425H56.5371L58.2771 390.43V391.975H56.7771V390.775H52.8021V393.955H56.5371L58.2771 394.96V399.07L56.5371 400.075H52.8921L51.1521 399.07V397.525H52.6521V398.725H56.7771V395.455H53.0421L51.3021 394.45ZM64.5551 390.85V400H63.0551V390.85H60.0701V389.5H67.5401V390.85H64.5551ZM70.8344 395.275V398.65H75.3194V400H69.3344V389.5H75.3194V390.85H70.8344V393.925H74.4194V395.275H70.8344ZM81.1853 395.815H78.9203V400H77.4203V389.5H82.8053L84.5453 390.505V394.81L82.8053 395.815L85.2203 400H83.5553L81.1853 395.815ZM78.9203 390.85V394.465H83.0453V390.85H78.9203ZM87.2494 400V389.5H88.7494V400H87.2494ZM99.3285 399.07L97.5885 400.075H93.1935L91.4535 399.07V390.43L93.1935 389.425H97.5885L99.3285 390.43V399.07ZM92.9535 390.775V398.725H97.8285V390.775H92.9535ZM108.405 389.5H109.905V399.07L108.165 400.075H103.77L102.03 399.07V389.5H103.53V398.575H108.405V389.5ZM112.606 394.45V390.43L114.346 389.425H117.841L119.581 390.43V391.975H118.081V390.775H114.106V393.955H117.841L119.581 394.96V399.07L117.841 400.075H114.196L112.456 399.07V397.525H113.956V398.725H118.081V395.455H114.346L112.606 394.45ZM138.71 389.5L136.01 400H134.225L132.005 391.585H131.975L129.755 400H127.97L125.27 389.5H126.725L128.855 398.08H128.885L131.15 389.5H132.83L135.08 398.08H135.11L137.255 389.5H138.71ZM148.386 399.07L146.646 400.075H142.251L140.511 399.07V390.43L142.251 389.425H146.646L148.386 390.43V399.07ZM142.011 390.775V398.725H146.886V390.775H142.011ZM160.237 400V391.45H160.207L157.117 400H155.617L152.542 391.45H152.512V400H151.087V389.5H153.202L156.352 398.26H156.382L159.547 389.5H161.662V400H160.237ZM168.919 389.5L172.669 400H171.199L170.314 397.51H165.664L164.779 400H163.309L167.059 389.5H168.919ZM167.974 390.985L166.144 396.16H169.834L168.004 390.985H167.974ZM175.82 392.065V400H174.32V389.5H175.685L181.115 397.435H181.145V389.5H182.645V400H181.28L175.85 392.065H175.82ZM69.5623 420.3L73.1023 409.2H74.4523L70.9123 420.3H69.5623ZM89.2949 420V411.45H89.2649L86.1749 420H84.6749L81.5999 411.45H81.5699V420H80.1449V409.5H82.2599L85.4099 418.26H85.4399L88.6049 409.5H90.7199V420H89.2949ZM101.291 419.07L99.5514 420.075H95.1564L93.4164 419.07V410.43L95.1564 409.425H99.5514L101.291 410.43V419.07ZM94.9164 410.775V418.725H99.7914V410.775H94.9164ZM107.578 410.85V420H106.078V410.85H103.093V409.5H110.563V410.85H107.578ZM113.857 415.275V420H112.357V409.5H113.857V413.925H118.882V409.5H120.382V420H118.882V415.275H113.857ZM124.579 415.275V418.65H129.064V420H123.079V409.5H129.064V410.85H124.579V413.925H128.164V415.275H124.579ZM134.93 415.815H132.665V420H131.165V409.5H136.55L138.29 410.505V414.81L136.55 415.815L138.965 420H137.3L134.93 415.815ZM132.665 410.85V414.465H136.79V410.85H132.665ZM149.451 409.5L153.201 420H151.731L150.846 417.51H146.196L145.311 420H143.841L147.591 409.5H149.451ZM148.506 410.985L146.676 416.16H150.366L148.536 410.985H148.506ZM154.852 420V409.5H156.352V418.65H160.237V420H154.852ZM162.03 420V409.5H163.53V420H162.03ZM167.734 415.275V418.65H172.219V420H166.234V409.5H172.219V410.85H167.734V413.925H171.319V415.275H167.734ZM175.82 412.065V420H174.32V409.5H175.685L181.115 417.435H181.145V409.5H182.645V420H181.28L175.85 412.065H175.82Z" fill="#21D1FF"/>
<path d="M214.275 291V280.5H219.81L221.55 281.505V286.185L219.81 287.19H216.375V291H214.275ZM216.375 282.3V285.39H219.45V282.3H216.375ZM228.51 280.5L232.26 291H230.19L229.395 288.735H225.465L224.67 291H222.6L226.35 280.5H228.51ZM227.415 283.14L226.095 286.935H228.75L227.445 283.14H227.415ZM239.832 280.5H241.932V290.07L240.192 291.075H235.497L233.757 290.07V280.5H235.857V289.125H239.832V280.5ZM244.48 291V280.5H246.58V289.2H250.165V291H244.48ZM261.34 287.925H263.44V290.07L261.7 291.075H257.455L255.715 290.07V281.43L257.455 280.425H261.7L263.44 281.43V283.575H261.34V282.225H257.815V289.275H261.34V287.925ZM273.803 291H271.493L269.243 287.04H267.938V291H265.838V280.5H271.523L273.263 281.505V286.035L271.523 287.04L273.803 291ZM267.938 282.3V285.24H271.163V282.3H267.938ZM283.988 290.07L282.248 291.075H277.553L275.813 290.07V281.43L277.553 280.425H282.248L283.988 281.43V290.07ZM277.913 282.225V289.275H281.888V282.225H277.913ZM286.536 285.675V281.43L288.276 280.425H292.071L293.811 281.43V283.425H291.711V282.225H288.636V284.73H292.071L293.811 285.735V290.07L292.071 291.075H288.126L286.386 290.07V288.075H288.486V289.275H291.711V286.68H288.276L286.536 285.675ZM296.365 285.675V281.43L298.105 280.425H301.9L303.64 281.43V283.425H301.54V282.225H298.465V284.73H301.9L303.64 285.735V290.07L301.9 291.075H297.955L296.215 290.07V288.075H298.315V289.275H301.54V286.68H298.105L296.365 285.675ZM219.135 310.5L222.885 321H220.815L220.02 318.735H216.09L215.295 321H213.225L216.975 310.5H219.135ZM218.04 313.14L216.72 316.935H219.375L218.07 313.14H218.04ZM224.382 321V310.5H226.482V319.2H230.067V321H224.382ZM233.821 316.5V319.2H238.006V321H231.721V310.5H238.006V312.3H233.821V314.7H237.106V316.5H233.821ZM239.054 321L242.444 315.63L239.204 310.5H241.574L243.629 313.755L245.699 310.5H248.069L244.814 315.63L248.219 321H245.849L243.629 317.505L241.424 321H239.054ZM253.767 321V310.5H255.867V315.225H255.897L259.812 310.5H262.302L258.162 315.42L262.767 321H260.247L256.902 316.92L255.867 318.135V321H253.767ZM264.124 321V310.5H266.224V321H264.124ZM268.767 321V310.5H270.867V321H268.767ZM275.511 316.5V321H273.411V310.5H279.846V312.3H275.511V314.7H278.946V316.5H275.511ZM283.597 314.205V321H281.497V310.5H283.462L287.992 317.295H288.022V310.5H290.122V321H288.157L283.627 314.205H283.597ZM294.773 316.5V319.2H298.958V321H292.673V310.5H298.958V312.3H294.773V314.7H298.058V316.5H294.773ZM308.871 321H306.561L304.311 317.04H303.006V321H300.906V310.5H306.591L308.331 311.505V316.035L306.591 317.04L308.871 321ZM303.006 312.3V315.24H306.231V312.3H303.006ZM219.135 340.5L222.885 351H220.815L220.02 348.735H216.09L215.295 351H213.225L216.975 340.5H219.135ZM218.04 343.14L216.72 346.935H219.375L218.07 343.14H218.04ZM224.382 351V340.5H226.482V349.2H230.067V351H224.382ZM233.821 346.5V349.2H238.006V351H231.721V340.5H238.006V342.3H233.821V344.7H237.106V346.5H233.821ZM239.954 345.675V341.43L241.694 340.425H245.489L247.229 341.43V343.425H245.129V342.225H242.054V344.73H245.489L247.229 345.735V350.07L245.489 351.075H241.544L239.804 350.07V348.075H241.904V349.275H245.129V346.68H241.694L239.954 345.675ZM249.783 345.675V341.43L251.523 340.425H255.318L257.058 341.43V343.425H254.958V342.225H251.883V344.73H255.318L257.058 345.735V350.07L255.318 351.075H251.373L249.633 350.07V348.075H251.733V349.275H254.958V346.68H251.523L249.783 345.675ZM264.472 340.5L268.222 351H266.152L265.357 348.735H261.427L260.632 351H258.562L262.312 340.5H264.472ZM263.377 343.14L262.057 346.935H264.712L263.407 343.14H263.377ZM271.819 344.205V351H269.719V340.5H271.684L276.214 347.295H276.244V340.5H278.344V351H276.379L271.849 344.205H271.819ZM289.071 349.995L287.331 351H280.896V340.5H287.331L289.071 341.505V349.995ZM282.996 342.3V349.2H286.971V342.3H282.996ZM299.584 351H297.274L295.024 347.04H293.719V351H291.619V340.5H297.304L299.044 341.505V346.035L297.304 347.04L299.584 351ZM293.719 342.3V345.24H296.944V342.3H293.719ZM306.454 340.5L310.204 351H308.134L307.339 348.735H303.409L302.614 351H300.544L304.294 340.5H306.454ZM305.359 343.14L304.039 346.935H306.694L305.389 343.14H305.359ZM219.9 367.925H222V370.07L220.26 371.075H216.015L214.275 370.07V361.43L216.015 360.425H220.26L222 361.43V363.575H219.9V362.225H216.375V369.275H219.9V367.925ZM229.257 360.5L233.007 371H230.937L230.142 368.735H226.212L225.417 371H223.347L227.097 360.5H229.257ZM228.162 363.14L226.842 366.935H229.497L228.192 363.14H228.162ZM242.469 371H240.159L237.909 367.04H236.604V371H234.504V360.5H240.189L241.929 361.505V366.035L240.189 367.04L242.469 371ZM236.604 362.3V365.24H239.829V362.3H236.604ZM251.905 364.805L250.6 365.555V365.585L251.905 366.335V369.995L250.165 371H244.48V360.5H250.165L251.905 361.505V364.805ZM246.58 366.47V369.2H249.805V366.47H246.58ZM246.58 362.3V364.67H249.805V362.3H246.58ZM262.631 370.07L260.891 371.075H256.196L254.456 370.07V361.43L256.196 360.425H260.891L262.631 361.43V370.07ZM256.556 362.225V369.275H260.531V362.225H256.556ZM267.278 364.205V371H265.178V360.5H267.143L271.673 367.295H271.703V360.5H273.803V371H271.838L267.308 364.205H267.278ZM278.455 366.5V369.2H282.64V371H276.355V360.5H282.64V362.3H278.455V364.7H281.74V366.5H278.455ZM292.553 371H290.243L287.993 367.04H286.688V371H284.588V360.5H290.273L292.013 361.505V366.035L290.273 367.04L292.553 371ZM286.688 362.3V365.24H289.913V362.3H286.688ZM302.738 370.07L300.998 371.075H296.303L294.563 370.07V361.43L296.303 360.425H300.998L302.738 361.43V370.07ZM296.663 362.225V369.275H300.638V362.225H296.663ZM217.8 399.275V390.5H219.9V400.07L218.16 401.075H214.965L213.225 400.07V397.175H215.325V399.275H217.8ZM227.309 390.5L231.059 401H228.989L228.194 398.735H224.264L223.469 401H221.399L225.149 390.5H227.309ZM226.214 393.14L224.894 396.935H227.549L226.244 393.14H226.214ZM234.656 396.5V401H232.556V390.5H234.656V394.7H238.781V390.5H240.881V401H238.781V396.5H234.656ZM252.26 401V394.07H252.23L249.86 401H247.865L245.48 393.98H245.45V401H243.425V390.5H246.215L248.855 398.225H248.885L251.51 390.5H254.285V401H252.26ZM261.689 390.5L265.439 401H263.369L262.574 398.735H258.644L257.849 401H255.779L259.529 390.5H261.689ZM260.594 393.14L259.274 396.935H261.929L260.624 393.14H260.594ZM266.936 401V390.5H269.036V401H266.936ZM277.205 397.925H279.305V400.07L277.565 401.075H273.32L271.58 400.07V391.43L273.32 390.425H277.565L279.305 391.43V393.575H277.205V392.225H273.68V399.275H277.205V397.925ZM286.562 390.5L290.312 401H288.242L287.447 398.735H283.517L282.722 401H280.652L284.402 390.5H286.562ZM285.467 393.14L284.147 396.935H286.802L285.497 393.14H285.467ZM218.025 417.325V415.525H221.85V420.07L220.11 421.075H215.865L214.125 420.07V411.43L215.865 410.425H220.11L221.85 411.43V413.575H219.75V412.225H216.225V419.275H219.75V417.325H218.025ZM224.251 421V410.5H226.351V419.2H229.936V421H224.251ZM236.449 410.5L240.199 421H238.129L237.334 418.735H233.404L232.609 421H230.539L234.289 410.5H236.449ZM235.354 413.14L234.034 416.935H236.689L235.384 413.14H235.354ZM243.797 414.205V421H241.697V410.5H243.662L248.192 417.295H248.222V410.5H250.322V421H248.357L243.827 414.205H243.797ZM261.634 410.5L257.884 421H255.574L251.824 410.5H253.954L256.729 418.435H256.759L259.504 410.5H261.634ZM263.128 421V410.5H265.228V421H263.128ZM267.771 421V410.5H269.871V419.2H273.456V421H267.771ZM275.11 421V410.5H277.21V419.2H280.795V421H275.11ZM284.549 416.5V419.2H288.734V421H282.449V410.5H288.734V412.3H284.549V414.7H287.834V416.5H284.549Z" fill="#21D1FF"/>
</g>
<defs>
<filter id="filter0_d_2471_2383" x="-1" y="0" width="395" height="690" filterUnits="userSpaceOnUse" color-interpolation-filters="sRGB">
<feFlood flood-opacity="0" result="BackgroundImageFix"/>
<feColorMatrix in="SourceAlpha" type="matrix" values="0 0 0 0 0 0 0 0 0 0 0 0 0 0 0 0 0 0 127 0" result="hardAlpha"/>
<feOffset/>
<feGaussianBlur stdDeviation="10"/>
<feComposite in2="hardAlpha" operator="out"/>
<feColorMatrix type="matrix" values="0 0 0 0 0.129412 0 0 0 0 0.819608 0 0 0 0 1 0 0 0 1 0"/>
<feBlend mode="normal" in2="BackgroundImageFix" result="effect1_dropShadow_2471_2383"/>
<feBlend mode="normal" in="SourceGraphic" in2="effect1_dropShadow_2471_2383" result="shape"/>
</filter>
<filter id="filter1_d_2471_2383" x="156.68" y="126.425" width="71.8369" height="18.6499" filterUnits="userSpaceOnUse" color-interpolation-filters="sRGB">
<feFlood flood-opacity="0" result="BackgroundImageFix"/>
<feColorMatrix in="SourceAlpha" type="matrix" values="0 0 0 0 0 0 0 0 0 0 0 0 0 0 0 0 0 0 127 0" result="hardAlpha"/>
<feOffset dy="4"/>
<feGaussianBlur stdDeviation="2"/>
<feComposite in2="hardAlpha" operator="out"/>
<feColorMatrix type="matrix" values="0 0 0 0 0 0 0 0 0 0 0 0 0 0 0 0 0 0 0.5 0"/>
<feBlend mode="normal" in2="BackgroundImageFix" result="effect1_dropShadow_2471_2383"/>
<feBlend mode="normal" in="SourceGraphic" in2="effect1_dropShadow_2471_2383" result="shape"/>
</filter>
<filter id="filter2_d_2471_2383" x="123.494" y="468.425" width="148.855" height="18.6499" filterUnits="userSpaceOnUse" color-interpolation-filters="sRGB">
<feFlood flood-opacity="0" result="BackgroundImageFix"/>
<feColorMatrix in="SourceAlpha" type="matrix" values="0 0 0 0 0 0 0 0 0 0 0 0 0 0 0 0 0 0 127 0" result="hardAlpha"/>
<feOffset dy="4"/>
<feGaussianBlur stdDeviation="2"/>
<feComposite in2="hardAlpha" operator="out"/>
<feColorMatrix type="matrix" values="0 0 0 0 0 0 0 0 0 0 0 0 0 0 0 0 0 0 0.5 0"/>
<feBlend mode="normal" in2="BackgroundImageFix" result="effect1_dropShadow_2471_2383"/>
<feBlend mode="normal" in="SourceGraphic" in2="effect1_dropShadow_2471_2383" result="shape"/>
</filter>
<filter id="filter3_d_2471_2383" x="103.565" y="68.9188" width="173.925" height="27.88" filterUnits="userSpaceOnUse" color-interpolation-filters="sRGB">
<feFlood flood-opacity="0" result="BackgroundImageFix"/>
<feColorMatrix in="SourceAlpha" type="matrix" values="0 0 0 0 0 0 0 0 0 0 0 0 0 0 0 0 0 0 127 0" result="hardAlpha"/>
<feOffset dy="4"/>
<feGaussianBlur stdDeviation="2"/>
<feComposite in2="hardAlpha" operator="out"/>
<feColorMatrix type="matrix" values="0 0 0 0 0 0 0 0 0 0 0 0 0 0 0 0 0 0 0.5 0"/>
<feBlend mode="normal" in2="BackgroundImageFix" result="effect1_dropShadow_2471_2383"/>
<feBlend mode="normal" in="SourceGraphic" in2="effect1_dropShadow_2471_2383" result="shape"/>
</filter>
<filter id="filter4_d_2471_2383" x="148.092" y="242.425" width="93.8501" height="18.6499" filterUnits="userSpaceOnUse" color-interpolation-filters="sRGB">
<feFlood flood-opacity="0" result="BackgroundImageFix"/>
<feColorMatrix in="SourceAlpha" type="matrix" values="0 0 0 0 0 0 0 0 0 0 0 0 0 0 0 0 0 0 127 0" result="hardAlpha"/>
<feOffset dy="4"/>
<feGaussianBlur stdDeviation="2"/>
<feComposite in2="hardAlpha" operator="out"/>
<feColorMatrix type="matrix" values="0 0 0 0 0 0 0 0 0 0 0 0 0 0 0 0 0 0 0.5 0"/>
<feBlend mode="normal" in2="BackgroundImageFix" result="effect1_dropShadow_2471_2383"/>
<feBlend mode="normal" in="SourceGraphic" in2="effect1_dropShadow_2471_2383" result="shape"/>
</filter>
</defs>
</svg>
