<svg width="104" height="12" viewBox="0 0 104 12" fill="none" xmlns="http://www.w3.org/2000/svg">
<rect x="1.25" y="0.25" width="102.5" height="11.5" fill="#363636" fill-opacity="0.24"/>
<rect x="1.25" y="0.25" width="102.5" height="11.5" stroke="url(#paint0_radial_2410_2605)" stroke-width="0.5"/>
<rect x="1.25" y="0.25" width="102.5" height="11.5" stroke="#6B5AFF" stroke-opacity="0.3" stroke-width="0.5"/>
<path d="M7.22 6.565H8.2V7.566L7.388 8.035H5.407L4.595 7.566V3.534L5.407 3.065H7.388L8.2 3.534V4.535H7.22V3.905H5.575V7.195H7.22V6.565ZM12.4406 3.1L14.1906 8H13.2246L12.8536 6.943L11.0196 6.943L10.6486 8H9.68263L11.4326 3.1H12.4406ZM11.9296 4.332L11.3136 6.103H12.5526L11.9436 4.332H11.9296ZM19.4604 8H18.3824L17.3324 6.152H16.7234V8H15.7434V3.1H18.3964L19.2084 3.569V5.683L18.3964 6.152L19.4604 8ZM16.7234 3.94V5.312H18.2284V3.94H16.7234ZM25.0677 7.531L24.2557 8H21.2527V3.1L24.2557 3.1L25.0677 3.569V7.531ZM22.2327 3.94V7.16H24.0877V3.94H22.2327ZM26.9706 6.614V5.725H29.1966V6.614H26.9706ZM32.9853 3.94V8H32.0053V3.94H30.6823V3.1H34.3083V3.94H32.9853ZM37.0198 8V5.907L35.4448 3.1H36.5088L37.5028 4.934H37.5168L38.5178 3.1H39.5818L37.9998 5.914V8H37.0198ZM41.1365 8V3.1H43.7195L44.5315 3.569V5.753L43.7195 6.222H42.1165V8H41.1365ZM42.1165 3.94V5.382H43.5515V3.94H42.1165ZM47.3455 5.9V7.16H49.2985V8H46.3655V3.1H49.2985V3.94H47.3455V5.06H48.8785V5.9H47.3455Z" fill="white"/>
<path d="M56.595 8V3.1H59.178L59.99 3.569V5.753L59.178 6.222H57.575V8H56.595ZM57.575 3.94V5.382H59.01V3.94H57.575ZM61.824 8V3.1H62.804V7.16L64.477 7.16V8L61.824 8ZM68.3708 3.1L70.1208 8H69.1548L68.7838 6.943H66.9498L66.5788 8H65.6128L67.3628 3.1H68.3708ZM67.8598 4.332L67.2438 6.103H68.4828L67.8738 4.332H67.8598ZM72.3416 8V5.907L70.7666 3.1H71.8306L72.8246 4.934H72.8386L73.8396 3.1L74.9036 3.1L73.3216 5.914V8H72.3416ZM80.8806 6.285V5.445H82.6656V7.566L81.8536 8.035H79.8726L79.0606 7.566V3.534L79.8726 3.065L81.8536 3.065L82.6656 3.534V4.535H81.6856V3.905L80.0406 3.905V7.195H81.6856V6.285H80.8806ZM86.9079 3.1L88.6579 8H87.6919L87.3209 6.943H85.4869L85.1159 8H84.1499L85.8999 3.1H86.9079ZM86.3969 4.332L85.7809 6.103H87.0199L86.4109 4.332H86.3969ZM94.3337 8V4.766H94.3197L93.2137 8H92.2827L91.1697 4.724H91.1557V8H90.2107V3.1H91.5127L92.7447 6.705H92.7587L93.9837 3.1H95.2787V8H94.3337ZM98.2996 5.9V7.16H100.253V8H97.3196V3.1H100.253V3.94H98.2996V5.06H99.8326V5.9H98.2996Z" fill="#C5C5C5"/>
<rect x="0.5" y="0.5" width="1" height="11" fill="#C5C5C5"/>
<rect x="0.5" y="0.5" width="1" height="11" stroke="url(#paint1_radial_2410_2605)"/>
<rect x="0.5" y="0.5" width="1" height="11" stroke="#6B5AFF" stroke-opacity="0.3"/>
<defs>
<radialGradient id="paint0_radial_2410_2605" cx="0" cy="0" r="1" gradientUnits="userSpaceOnUse" gradientTransform="translate(52.5 -1.72197) rotate(90) scale(4.46637 38.3363)">
<stop stop-color="#FF8A00"/>
<stop offset="1" stop-color="white" stop-opacity="0"/>
</radialGradient>
<radialGradient id="paint1_radial_2410_2605" cx="0" cy="0" r="1" gradientUnits="userSpaceOnUse" gradientTransform="translate(1 -1.72197) rotate(90) scale(4.46637 0.744395)">
<stop stop-color="#FF8A00"/>
<stop offset="1" stop-color="white" stop-opacity="0"/>
</radialGradient>
</defs>
</svg>
