<svg width="96" height="12" viewBox="0 0 96 12" fill="none" xmlns="http://www.w3.org/2000/svg">
<rect x="1.25" y="0.25" width="94.5" height="11.5" fill="#363636" fill-opacity="0.24"/>
<rect x="1.25" y="0.25" width="94.5" height="11.5" stroke="url(#paint0_radial_2404_1851)" stroke-width="0.5"/>
<rect x="1.25" y="0.25" width="94.5" height="11.5" stroke="#6B5AFF" stroke-opacity="0.3" stroke-width="0.5"/>
<path d="M7.22 6.565H8.2V7.566L7.388 8.035H5.407L4.595 7.566V3.534L5.407 3.065H7.388L8.2 3.534V4.535H7.22V3.905H5.575V7.195H7.22V6.565ZM12.4406 3.1L14.1906 8H13.2246L12.8536 6.943L11.0196 6.943L10.6486 8H9.68263L11.4326 3.1H12.4406ZM11.9296 4.332L11.3136 6.103H12.5526L11.9436 4.332H11.9296ZM19.4604 8H18.3824L17.3324 6.152H16.7234V8H15.7434V3.1H18.3964L19.2084 3.569V5.683L18.3964 6.152L19.4604 8ZM16.7234 3.94V5.312H18.2284V3.94H16.7234ZM25.0677 7.531L24.2557 8H21.2527V3.1L24.2557 3.1L25.0677 3.569V7.531ZM22.2327 3.94V7.16H24.0877V3.94H22.2327ZM26.9706 6.614V5.725H29.1966V6.614H26.9706ZM32.9853 3.94V8H32.0053V3.94H30.6823V3.1H34.3083V3.94H32.9853ZM37.0198 8V5.907L35.4448 3.1H36.5088L37.5028 4.934H37.5168L38.5178 3.1H39.5818L37.9998 5.914V8H37.0198ZM41.1365 8V3.1H43.7195L44.5315 3.569V5.753L43.7195 6.222H42.1165V8H41.1365ZM42.1165 3.94V5.382H43.5515V3.94H42.1165ZM47.3455 5.9V7.16H49.2985V8H46.3655V3.1H49.2985V3.94H47.3455V5.06H48.8785V5.9H47.3455Z" fill="white"/>
<path d="M59.22 6.565H60.2V7.566L59.388 8.035H57.407L56.595 7.566V3.534L57.407 3.065H59.388L60.2 3.534V4.535H59.22V3.905H57.575V7.195H59.22V6.565ZM63.1526 5.9V8H62.1726V3.1H63.1526V5.06L65.0776 5.06V3.1H66.0576V8H65.0776V5.9L63.1526 5.9ZM70.3669 3.1L72.1169 8H71.1509L70.7799 6.943H68.9459L68.5749 8H67.6089L69.3589 3.1H70.3669ZM69.8559 4.332L69.2399 6.103H70.4789L69.8699 4.332H69.8559ZM73.6697 8V3.1L76.2527 3.1L77.0647 3.569V5.753L76.2527 6.222H74.6497V8H73.6697ZM74.6497 3.94V5.382H76.0847V3.94H74.6497ZM80.7817 3.94V8H79.8017V3.94H78.4787V3.1L82.1047 3.1V3.94L80.7817 3.94ZM84.7112 5.9V7.16H86.6642V8H83.7312V3.1H86.6642V3.94H84.7112V5.06H86.2442V5.9H84.7112ZM92.144 8H91.066L90.016 6.152H89.407V8H88.427V3.1L91.08 3.1L91.892 3.569V5.683L91.08 6.152L92.144 8ZM89.407 3.94V5.312H90.912V3.94H89.407Z" fill="#5E52FF"/>
<rect x="0.5" y="0.5" width="1" height="11" fill="#5E52FF"/>
<rect x="0.5" y="0.5" width="1" height="11" stroke="url(#paint1_radial_2404_1851)"/>
<rect x="0.5" y="0.5" width="1" height="11" stroke="#6B5AFF" stroke-opacity="0.3"/>
<defs>
<radialGradient id="paint0_radial_2404_1851" cx="0" cy="0" r="1" gradientUnits="userSpaceOnUse" gradientTransform="translate(48.5 -1.72197) rotate(90) scale(4.46637 35.3587)">
<stop stop-color="#FF8A00"/>
<stop offset="1" stop-color="white" stop-opacity="0"/>
</radialGradient>
<radialGradient id="paint1_radial_2404_1851" cx="0" cy="0" r="1" gradientUnits="userSpaceOnUse" gradientTransform="translate(1 -1.72197) rotate(90) scale(4.46637 0.744395)">
<stop stop-color="#FF8A00"/>
<stop offset="1" stop-color="white" stop-opacity="0"/>
</radialGradient>
</defs>
</svg>
