<svg width="103" height="12" viewBox="0 0 103 12" fill="none" xmlns="http://www.w3.org/2000/svg">
<rect x="1.25" y="0.25" width="101.5" height="11.5" fill="#363636" fill-opacity="0.24"/>
<rect x="1.25" y="0.25" width="101.5" height="11.5" stroke="url(#paint0_radial_2410_2510)" stroke-width="0.5"/>
<rect x="1.25" y="0.25" width="101.5" height="11.5" stroke="#6B5AFF" stroke-opacity="0.3" stroke-width="0.5"/>
<path d="M7.22 6.565H8.2V7.566L7.388 8.035H5.407L4.595 7.566V3.534L5.407 3.065H7.388L8.2 3.534V4.535H7.22V3.905H5.575V7.195H7.22V6.565ZM12.4406 3.1L14.1906 8H13.2246L12.8536 6.943L11.0196 6.943L10.6486 8H9.68263L11.4326 3.1H12.4406ZM11.9296 4.332L11.3136 6.103H12.5526L11.9436 4.332H11.9296ZM19.4604 8H18.3824L17.3324 6.152H16.7234V8H15.7434V3.1H18.3964L19.2084 3.569V5.683L18.3964 6.152L19.4604 8ZM16.7234 3.94V5.312H18.2284V3.94H16.7234ZM25.0677 7.531L24.2557 8H21.2527V3.1L24.2557 3.1L25.0677 3.569V7.531ZM22.2327 3.94V7.16H24.0877V3.94H22.2327ZM26.9706 6.614V5.725H29.1966V6.614H26.9706ZM32.9853 3.94V8H32.0053V3.94H30.6823V3.1H34.3083V3.94H32.9853ZM37.0198 8V5.907L35.4448 3.1H36.5088L37.5028 4.934H37.5168L38.5178 3.1H39.5818L37.9998 5.914V8H37.0198ZM41.1365 8V3.1H43.7195L44.5315 3.569V5.753L43.7195 6.222H42.1165V8H41.1365ZM42.1165 3.94V5.382H43.5515V3.94H42.1165ZM47.3455 5.9V7.16H49.2985V8H46.3655V3.1H49.2985V3.94H47.3455V5.06H48.8785V5.9H47.3455Z" fill="white"/>
<path d="M57.575 5.9V8H56.595V3.1H59.598V3.94H57.575V5.06H59.178V5.9H57.575ZM64.9394 8H63.8614L62.8114 6.152H62.2024V8H61.2224V3.1H63.8754L64.6874 3.569V5.683L63.8754 6.152L64.9394 8ZM62.2024 3.94V5.312L63.7074 5.312V3.94H62.2024ZM68.9997 3.1L70.7497 8H69.7837L69.4127 6.943H67.5787L67.2077 8H66.2417L67.9917 3.1H68.9997ZM68.4887 4.332L67.8727 6.103H69.1117L68.5027 4.332H68.4887ZM74.0525 6.285V5.445H75.8375V7.566L75.0255 8.035H73.0445L72.2325 7.566V3.534L73.0445 3.065L75.0255 3.065L75.8375 3.534V4.535H74.8575V3.905L73.2125 3.905V7.195H74.8575V6.285H74.0525ZM81.9348 8V4.766H81.9208L80.8148 8H79.8838L78.7708 4.724H78.7568V8H77.8118V3.1H79.1138L80.3458 6.705H80.3598L81.5848 3.1H82.8798V8H81.9348ZM85.9007 5.9V7.16H87.8537V8H84.9207V3.1H87.8537V3.94H85.9007V5.06H87.4337V5.9H85.9007ZM90.5965 4.829V8H89.6165V3.1H90.5335L92.6475 6.271H92.6615V3.1H93.6415V8H92.7245L90.6105 4.829H90.5965ZM97.5693 3.94V8H96.5893V3.94L95.2663 3.94V3.1L98.8923 3.1V3.94H97.5693Z" fill="#B591FF"/>
<rect x="0.5" y="0.5" width="1" height="11" fill="#B591FF"/>
<rect x="0.5" y="0.5" width="1" height="11" stroke="url(#paint1_radial_2410_2510)"/>
<rect x="0.5" y="0.5" width="1" height="11" stroke="#6B5AFF" stroke-opacity="0.3"/>
<defs>
<radialGradient id="paint0_radial_2410_2510" cx="0" cy="0" r="1" gradientUnits="userSpaceOnUse" gradientTransform="translate(52 -1.72197) rotate(90) scale(4.46637 37.9641)">
<stop stop-color="#FF8A00"/>
<stop offset="1" stop-color="white" stop-opacity="0"/>
</radialGradient>
<radialGradient id="paint1_radial_2410_2510" cx="0" cy="0" r="1" gradientUnits="userSpaceOnUse" gradientTransform="translate(1 -1.72197) rotate(90) scale(4.46637 0.744395)">
<stop stop-color="#FF8A00"/>
<stop offset="1" stop-color="white" stop-opacity="0"/>
</radialGradient>
</defs>
</svg>
