<svg width="178" height="126" viewBox="0 0 178 126" fill="none" xmlns="http://www.w3.org/2000/svg">
<mask id="path-1-inside-1_2410_2438" fill="white">
<path fill-rule="evenodd" clip-rule="evenodd" d="M0 0L54.0523 0L56.9602 4.19999L121.549 4.19999L124.457 0L178 0V126H124.457L121.549 121.8L56.9602 121.8L54.0523 126H0L0 0Z"/>
</mask>
<path fill-rule="evenodd" clip-rule="evenodd" d="M0 0L54.0523 0L56.9602 4.19999L121.549 4.19999L124.457 0L178 0V126H124.457L121.549 121.8L56.9602 121.8L54.0523 126H0L0 0Z" fill="#363636" fill-opacity="0.24"/>
<path d="M54.0523 0L54.8744 -0.569249L54.5762 -1H54.0523V0ZM0 0L0 -1L-1 -1V0L0 0ZM56.9602 4.19999L56.1381 4.76923L56.4363 5.19999H56.9602V4.19999ZM121.549 4.19999V5.19999H122.073L122.371 4.76923L121.549 4.19999ZM124.457 0V-1H123.933L123.635 -0.569249L124.457 0ZM178 0L179 0V-1H178V0ZM178 126V127H179V126H178ZM124.457 126L123.635 126.569L123.933 127H124.457V126ZM121.549 121.8L122.371 121.231L122.073 120.8H121.549V121.8ZM56.9602 121.8V120.8H56.4363L56.1381 121.231L56.9602 121.8ZM54.0523 126V127H54.5762L54.8744 126.569L54.0523 126ZM0 126H-1L-1 127H0L0 126ZM54.0523 -1L0 -1L0 1L54.0523 1V-1ZM57.7824 3.63074L54.8744 -0.569249L53.2301 0.569249L56.1381 4.76923L57.7824 3.63074ZM121.549 3.19999L56.9602 3.19999V5.19999L121.549 5.19999V3.19999ZM123.635 -0.569249L120.727 3.63074L122.371 4.76923L125.279 0.569249L123.635 -0.569249ZM178 -1L124.457 -1V1L178 1V-1ZM179 126V0L177 0V126H179ZM124.457 127H178V125H124.457V127ZM125.279 125.431L122.371 121.231L120.727 122.369L123.635 126.569L125.279 125.431ZM121.549 120.8L56.9602 120.8V122.8L121.549 122.8V120.8ZM56.1381 121.231L53.2301 125.431L54.8744 126.569L57.7824 122.369L56.1381 121.231ZM0 127H54.0523V125H0L0 127ZM-1 0L-1 126H1L1 0L-1 0Z" fill="url(#paint0_radial_2410_2438)" mask="url(#path-1-inside-1_2410_2438)"/>
<path d="M54.0523 0L54.8744 -0.569249L54.5762 -1H54.0523V0ZM0 0L0 -1L-1 -1V0L0 0ZM56.9602 4.19999L56.1381 4.76923L56.4363 5.19999H56.9602V4.19999ZM121.549 4.19999V5.19999H122.073L122.371 4.76923L121.549 4.19999ZM124.457 0V-1H123.933L123.635 -0.569249L124.457 0ZM178 0L179 0V-1H178V0ZM178 126V127H179V126H178ZM124.457 126L123.635 126.569L123.933 127H124.457V126ZM121.549 121.8L122.371 121.231L122.073 120.8H121.549V121.8ZM56.9602 121.8V120.8H56.4363L56.1381 121.231L56.9602 121.8ZM54.0523 126V127H54.5762L54.8744 126.569L54.0523 126ZM0 126H-1L-1 127H0L0 126ZM54.0523 -1L0 -1L0 1L54.0523 1V-1ZM57.7824 3.63074L54.8744 -0.569249L53.2301 0.569249L56.1381 4.76923L57.7824 3.63074ZM121.549 3.19999L56.9602 3.19999V5.19999L121.549 5.19999V3.19999ZM123.635 -0.569249L120.727 3.63074L122.371 4.76923L125.279 0.569249L123.635 -0.569249ZM178 -1L124.457 -1V1L178 1V-1ZM179 126V0L177 0V126H179ZM124.457 127H178V125H124.457V127ZM125.279 125.431L122.371 121.231L120.727 122.369L123.635 126.569L125.279 125.431ZM121.549 120.8L56.9602 120.8V122.8L121.549 122.8V120.8ZM56.1381 121.231L53.2301 125.431L54.8744 126.569L57.7824 122.369L56.1381 121.231ZM0 127H54.0523V125H0L0 127ZM-1 0L-1 126H1L1 0L-1 0Z" fill="#B9B9B9" fill-opacity="0.3" mask="url(#path-1-inside-1_2410_2438)"/>
<defs>
<radialGradient id="paint0_radial_2410_2438" cx="0" cy="0" r="1" gradientUnits="userSpaceOnUse" gradientTransform="translate(89 -21.226) rotate(90) scale(46.8969 66.2511)">
<stop stop-color="#9900FF"/>
<stop offset="1" stop-color="white" stop-opacity="0"/>
</radialGradient>
</defs>
</svg>
